<?xml version="1.0" encoding="UTF-8"?>
<svg id="cucumber" xmlns="http://www.w3.org/2000/svg" viewBox="0 0 24 24">
  <defs>
    <style>
      .cls-1 {
        stroke-width: 0px;
      }
    </style>
  </defs>
  <path class="cls-1" d="m20.61,3.4l-.53.53.46-.6c-.93-.93-2.24-1.32-3.52-1.06-1.29.26-2.35,1.15-2.84,2.37-.85,2.11-2.18,4.14-3.75,5.71-1.61,1.61-3.51,2.86-5.66,3.72-1.25.5-2.15,1.58-2.42,2.88-.26,1.27.13,2.59,1.12,3.58.74.74,1.73,1.15,2.75,1.15.23,0,.46-.02.69-.06,4.91-.91,8.18-3.58,9.69-5.09,3.3-3.3,4.58-7.07,5.08-9.65.24-1.27-.16-2.57-1.07-3.48Zm-.4,3.2c-.46,2.37-1.64,5.84-4.67,8.87-1.39,1.39-4.39,3.84-8.9,4.68-.76.14-1.54-.11-2.17-.74-.57-.57-.81-1.36-.65-2.15.17-.81.73-1.48,1.51-1.79,2.33-.94,4.4-2.3,6.16-4.06,1.71-1.71,3.16-3.91,4.08-6.21.31-.76.95-1.3,1.75-1.46.17-.03.33-.05.49-.05.62,0,1.21.24,1.67.7l.07.07c.56.56.81,1.36.66,2.14Z"/>
  <path class="cls-1" d="m16.1,9.15c-.35-.21-.82-.1-1.03.25-.69,1.14-1.51,2.19-2.46,3.14-.94.94-1.99,1.77-3.13,2.46-.35.21-.47.68-.25,1.03.14.23.39.36.64.36.13,0,.27-.04.39-.11,1.25-.76,2.39-1.66,3.42-2.68,1.03-1.03,1.93-2.18,2.68-3.42.21-.35.1-.82-.25-1.03Z"/>
</svg>