<?xml version="1.0" encoding="UTF-8"?>
<svg id="onion" xmlns="http://www.w3.org/2000/svg" viewBox="0 0 24 24">
  <defs>
    <style>
      .cls-1 {
        stroke-width: 0px;
      }
    </style>
  </defs>
  <path class="cls-1" d="m18.69,11.7c-.57-1.32-1.44-1.95-2.27-2.55-.6-.43-1.22-.88-1.83-1.63-.98-1.19-1.59-2.75-1.84-4.62-.05-.37-.37-.65-.74-.65s-.7.28-.74.65c-.24,1.88-.86,3.43-1.84,4.62-.62.75-1.24,1.2-1.83,1.63-.84.6-1.7,1.23-2.27,2.55-.34.79-1.01,2.81.04,4.67.55.98,1.5,1.7,2.64,2.1-.32.36-.59.8-.71,1.36-.1.43-.1.87,0,1.32.07.35.39.6.73.6.05,0,.1,0,.16-.02.41-.08.67-.48.58-.89-.05-.24-.05-.47,0-.68.16-.72.84-1.14,1.23-1.33,0,0,0,0,0,0,.05,0,.11,0,.16,0,.35,0,.71-.03,1.07-.08h.05v2.25c0,.41.34.75.75.75s.75-.34.75-.75v-2.25h.05c.41.06.82.08,1.22.07h0c.4.19,1.09.62,1.26,1.35.05.22.05.44,0,.68-.08.41.17.8.58.89.05.01.1.02.16.02.35,0,.66-.24.73-.6.09-.45.09-.89,0-1.32-.13-.57-.4-1.01-.72-1.37,1.14-.4,2.09-1.12,2.64-2.09,1.05-1.85.38-3.88.04-4.67Zm-1.34,3.93c-.73,1.28-2.48,1.93-4.38,1.63-.04,0-.08,0-.12,0h-1.71s-.08,0-.12,0c-1.9.3-3.65-.35-4.38-1.63-.74-1.3-.16-2.88.04-3.33.41-.94.98-1.36,1.77-1.93.64-.46,1.38-.99,2.12-1.9.58-.71,1.06-1.52,1.42-2.43.36.91.84,1.72,1.42,2.43.74.9,1.47,1.43,2.12,1.9.79.57,1.37.98,1.77,1.93.2.45.77,2.03.04,3.33Z"/>
</svg>