<?xml version="1.0" encoding="UTF-8"?>
<svg id="parsley" xmlns="http://www.w3.org/2000/svg" viewBox="0 0 24 24">
  <defs>
    <style>
      .cls-1 {
        stroke-width: 0px;
      }
    </style>
  </defs>
  <path class="cls-1" d="m21.92,14.58c-.22-.45-.6-.78-1.07-.95.09-.66-.12-1.36-.62-1.86-.51-.5-1.19-.71-1.86-.62-.17-.47-.5-.85-.95-1.07-.94-.47-2.1-.08-2.58.87-.03.06-.05.12-.06.18-.25,1.16-.26,2.32-.03,3.45.09.42.22.83.37,1.23l-.24.24c-.59.59-1.33.97-2.13,1.12v-6.69c.57-.24,1.12-.52,1.63-.86,1.26-.83,2.33-1.91,3.17-3.22.04-.05.06-.11.08-.17.4-1.22-.25-2.54-1.46-2.94-.58-.2-1.2-.15-1.75.12-.05.03-.1.05-.15.08-.49-.75-1.32-1.25-2.27-1.25s-1.79.5-2.27,1.25c-.05-.03-.1-.06-.15-.08-.55-.28-1.17-.32-1.75-.12-1.2.41-1.85,1.73-1.46,2.94.02.06.05.12.08.17.84,1.31,1.91,2.39,3.17,3.22.51.34,1.07.62,1.63.86v6.69c-.8-.15-1.54-.53-2.13-1.12l-.24-.24c.15-.4.28-.81.37-1.23.23-1.13.22-2.29-.03-3.46-.01-.06-.04-.12-.06-.18-.48-.95-1.64-1.34-2.58-.87-.45.22-.78.6-.95,1.07-.66-.08-1.36.12-1.86.62-.5.51-.71,1.2-.62,1.86-.47.17-.85.5-1.07.95-.47.94-.08,2.1.87,2.58.06.03.12.05.18.06.6.13,1.21.19,1.8.19.56,0,1.11-.06,1.65-.17.42-.09.83-.22,1.23-.37l.24.24c.87.87,1.99,1.4,3.19,1.56v2.32c0,.41.34.75.75.75s.75-.34.75-.75v-2.32c1.2-.16,2.32-.69,3.19-1.56l.24-.24c.4.15.81.28,1.23.37.54.11,1.1.17,1.65.17.6,0,1.2-.06,1.8-.19.06-.01.12-.04.18-.06.95-.48,1.34-1.63.87-2.58Zm-15.64,1.2c-.89.18-1.8.18-2.72,0-.17-.12-.23-.35-.14-.54.06-.13.17-.18.23-.2.06-.02.19-.04.33.02.33.17.73.07.95-.23.22-.3.18-.71-.08-.97-.29-.29-.29-.76-.02-1.04s.75-.27,1.04.02c.26.26.67.29.97.08.3-.22.4-.62.23-.95-.07-.14-.04-.26-.02-.33.02-.06.07-.17.2-.23.18-.09.41-.03.54.14.18.92.18,1.83,0,2.72-.02.11-.07.22-.1.33l-.15-.15c-.29-.29-.77-.29-1.06,0s-.29.77,0,1.06l.15.15c-.11.03-.22.08-.34.1Zm4.16-7.4c-1.06-.7-1.95-1.6-2.67-2.69-.09-.41.14-.84.53-.98.2-.07.41-.05.6.04.2.1.34.27.41.48.11.35.47.57.83.51.36-.06.63-.37.63-.74,0-.68.56-1.25,1.22-1.25s1.22.57,1.22,1.25c0,.37.27.68.63.74.36.06.72-.16.83-.51.07-.21.22-.38.41-.48.19-.1.41-.11.6-.04.39.13.62.57.53.98-.72,1.09-1.62,1.99-2.67,2.69-.26.17-.53.33-.81.47v-1.84c0-.41-.34-.75-.75-.75s-.75.34-.75.75v1.84c-.28-.14-.55-.3-.81-.47Zm10,7.4c-.92.18-1.83.18-2.72,0-.11-.02-.22-.07-.34-.1l.15-.15c.29-.29.29-.77,0-1.06s-.77-.29-1.06,0l-.15.15c-.03-.11-.08-.22-.1-.34-.18-.89-.18-1.8,0-2.72.12-.17.35-.23.54-.14.13.06.18.17.2.23.02.06.05.19-.02.33-.17.33-.07.73.23.95.3.22.71.18.97-.08.29-.28.76-.29,1.04-.02.28.28.27.75-.02,1.04-.26.26-.29.67-.08.97.22.3.62.4.95.23.14-.07.26-.04.33-.02.06.02.17.07.23.2.09.18.03.41-.14.54Z"/>
</svg>