<?xml version="1.0" encoding="UTF-8"?>
<svg id="radish" xmlns="http://www.w3.org/2000/svg" viewBox="0 0 24 24">
  <defs>
    <style>
      .cls-1 {
        stroke-width: 0px;
      }
    </style>
  </defs>
  <path class="cls-1" d="m19.68,9.69c-1.12-2.49-3.62-3.85-6.04-4.28l1.88-1.88c.29-.29.29-.77,0-1.06s-.77-.29-1.06,0l-1.72,1.72v-1.19c0-.41-.34-.75-.75-.75s-.75.34-.75.75v1.19l-1.72-1.72c-.29-.29-.77-.29-1.06,0s-.29.77,0,1.06l1.88,1.88c-2.42.43-4.92,1.79-6.04,4.28-.16.35-1.49,3.48.07,5.73.69,1.01,1.63,1.35,2.54,1.69.82.3,1.67.61,2.57,1.44.78.71,1.38,1.63,1.81,2.72.11.29.39.48.7.48s.59-.19.7-.48c.42-1.09,1.03-2.01,1.81-2.72.9-.83,1.75-1.14,2.57-1.44.91-.33,1.85-.68,2.54-1.69,1.56-2.26.22-5.38.07-5.73Zm-1.3,4.88c-.42.61-1.01.83-1.83,1.13-.87.32-1.95.72-3.06,1.74-.58.53-1.08,1.15-1.49,1.84-.42-.7-.92-1.31-1.49-1.84-1.12-1.03-2.2-1.42-3.06-1.74-.81-.3-1.4-.52-1.83-1.13-1.11-1.61.02-4.16.07-4.27,1.1-2.46,3.97-3.56,6.32-3.56s5.21,1.1,6.32,3.56c.05.11,1.18,2.66.07,4.27Z"/>
</svg>