<?xml version="1.0" encoding="UTF-8"?>
<svg id="artichoke" xmlns="http://www.w3.org/2000/svg" viewBox="0 0 24 24">
  <defs>
    <style>
      .cls-1 {
        stroke-width: 0px;
      }
    </style>
  </defs>
  <path class="cls-1" d="m21.45,12.4c-.22-.16-.88-.62-1.82-.95.57-.83.9-1.63,1.09-2.22.1-.31-.01-.64-.27-.83-.36-.27-1.97-1.36-4.04-1.35-.23-.5-.48-.99-.78-1.45-.83-1.28-1.91-2.36-3.22-3.22-.25-.16-.57-.16-.82,0-1.31.86-2.39,1.94-3.22,3.22-.3.46-.55.95-.78,1.45-2.07,0-3.68,1.09-4.04,1.35-.26.19-.36.52-.27.83.19.58.52,1.38,1.09,2.22-.94.34-1.6.79-1.82.95-.26.19-.36.52-.27.83.33,1.05,1.2,3.01,3.3,4.4,1.26.83,2.55,1.18,3.67,1.29v1.08c0,.47.18.91.51,1.24.33.33.77.51,1.24.51h2c.96,0,1.75-.78,1.75-1.75v-1.09c1.12-.11,2.41-.46,3.66-1.29,2.1-1.39,2.97-3.35,3.3-4.4.1-.31-.01-.64-.27-.83Zm-3.44-1.32c-.69-.07-1.44-.03-2.22.21-1.67.5-3.01,1.72-3.79,3.3-.08-.17-.18-.32-.27-.48,0-.04.02-.08.02-.12-.07-2.47,1.36-4.63,3.47-5.26,1.63-.49,3.14.16,3.88.59-.27.64-.65,1.24-1.08,1.77Zm-6.01-7.16c.95.69,1.74,1.53,2.37,2.5.18.28.34.56.49.86-.02,0-.05.01-.07.02-1.09.33-2.04.97-2.79,1.81-.76-.86-1.72-1.5-2.78-1.81-.02,0-.05-.01-.07-.02.15-.29.31-.58.49-.85.63-.97,1.42-1.8,2.37-2.5Zm-7.09,5.39c.74-.43,2.24-1.08,3.88-.59.91.27,1.71.87,2.33,1.67-.35.65-.59,1.35-.73,2.11-.63-.54-1.35-.97-2.17-1.22-.79-.24-1.54-.28-2.22-.21-.44-.53-.82-1.13-1.08-1.77Zm-1,4c.74-.42,2.24-1.08,3.88-.59,1.94.58,3.3,2.45,3.45,4.67-1.04.15-2.98.21-4.82-1.01-1.4-.93-2.14-2.18-2.5-3.07Zm9.09,6.95h-2c-.09,0-.15-.05-.18-.07s-.07-.09-.07-.18v-1.06c.54-.04.96-.11,1.25-.17.29.06.71.14,1.25.17v1.06c0,.14-.11.25-.25.25Zm4.58-3.88c-1.84,1.22-3.78,1.16-4.82,1.01.16-2.21,1.52-4.09,3.45-4.67,1.63-.49,3.13.16,3.88.59-.37.89-1.1,2.14-2.5,3.07Z"/>
</svg>