<?xml version="1.0" encoding="UTF-8"?>
<svg id="bamboo" xmlns="http://www.w3.org/2000/svg" viewBox="0 0 24 24">
  <defs>
    <style>
      .cls-1 {
        stroke-width: 0px;
      }
    </style>
  </defs>
  <path class="cls-1" d="m19.86,10.26c-.51.1-1.25.27-2.11.58v-3.84s0-.03,0-.04c.51-.11.97-.18,1.33-.21.41-.04.71-.41.67-.82-.04-.41-.4-.71-.82-.67-.84.09-2.1.31-3.49.84-.23-.53-.49-1.05-.82-1.52-.59-.86-1.33-1.59-2.19-2.19-.26-.18-.6-.18-.86,0-.86.6-1.6,1.33-2.19,2.19-.33.47-.59.99-.82,1.52-1.39-.53-2.65-.75-3.49-.84-.42-.04-.78.26-.82.67-.04.41.26.78.67.82.37.04.82.1,1.33.21,0,.01,0,.03,0,.04v3.84c-.86-.31-1.6-.48-2.11-.58-.41-.08-.8.19-.88.6-.08.41.19.8.6.88.35.07.83.18,1.39.35v5.91c0,2.07,1.68,3.75,3.75,3.75h6c2.07,0,3.75-1.68,3.75-3.75v-5.91c.56-.17,1.04-.29,1.39-.35.41-.08.67-.47.6-.88-.08-.41-.47-.68-.88-.6Zm-3.61,1.21c-.31.15-.63.32-.94.51-.59-1.08-1.31-2.06-2.17-2.92,1.05-.79,2.13-1.33,3.12-1.67v4.09Zm-5.63-6.05c.39-.56.85-1.06,1.38-1.49.53.43.99.93,1.38,1.49.28.4.49.83.69,1.28-.69.35-1.38.8-2.07,1.34-.69-.54-1.38-.98-2.07-1.34.19-.45.41-.88.69-1.28Zm-2.87,1.96c1.19.42,2.52,1.09,3.75,2.18,1.04.92,1.89,2.02,2.55,3.26-.71.54-1.41,1.18-2.05,1.95-1.31-1.57-2.84-2.61-4.25-3.3v-4.09Zm-1,10.61v-5.3s.08.02.12.02c1.51.7,3.2,1.83,4.52,3.71.8,1.15,1.36,2.43,1.69,3.82h-4.07c-1.24,0-2.25-1.01-2.25-2.25Zm8.25,2.25h-.39c-.32-1.51-.88-2.92-1.69-4.19,1.27-1.64,2.82-2.69,4.22-3.34.04,0,.08-.01.12-.02v5.3c0,1.24-1.01,2.25-2.25,2.25Z"/>
</svg>