<?xml version="1.0" encoding="UTF-8"?>
<svg id="broccoli" xmlns="http://www.w3.org/2000/svg" viewBox="0 0 24 24">
  <defs>
    <style>
      .cls-1 {
        stroke-width: 0px;
      }
    </style>
  </defs>
  <path class="cls-1" d="m19.6,10.55c-.15-.2-.32-.36-.49-.5.44-.46.78-1.02.94-1.66.24-.95.09-1.94-.41-2.77-.93-1.54-2.81-2.15-4.44-1.53-.66-1.09-1.84-1.83-3.2-1.83s-2.55.74-3.2,1.83c-.69-.26-1.45-.31-2.18-.13-.95.24-1.75.83-2.26,1.66-.87,1.46-.6,3.27.53,4.43-.17.14-.33.3-.48.5-.85,1.14-.85,2.74,0,3.89.17.23,1.04,1.32,2.42,1.32.08,0,.17,0,.26-.01.61-.06,1.18-.33,1.63-.74.18.26.38.51.61.72-.02.04-.05.08-.06.13l-.76,3.8c-.1.52.03,1.05.36,1.45s.83.64,1.35.64h3.56c.53,0,1.02-.23,1.35-.64s.47-.94.36-1.45l-.76-3.8s-.04-.09-.05-.13c.23-.21.43-.46.61-.72.46.41,1.02.69,1.63.74.09,0,.17.01.26.01,1.38,0,2.25-1.09,2.42-1.32.85-1.16.84-2.76,0-3.89Zm-5.63,9.61s-.09.09-.19.09h-3.56c-.1,0-.17-.06-.19-.09s-.07-.11-.05-.21l.69-3.44c.42.15.87.24,1.34.24s.92-.09,1.34-.24l.69,3.44c.02.1-.02.17-.05.21Zm4.42-6.6c-.06.08-.58.78-1.32.7-.65-.06-1.2-.63-1.33-1.39-.07-.41-.46-.68-.87-.6-.41.07-.68.47-.6.87.03.16.07.31.12.46-.03.04-.06.07-.08.11-.39.93-1.29,1.54-2.31,1.54s-1.92-.6-2.31-1.54c-.02-.04-.05-.07-.08-.11.05-.15.09-.3.12-.46.07-.41-.2-.8-.6-.87-.41-.08-.8.2-.87.6-.14.76-.69,1.33-1.33,1.39-.75.06-1.27-.62-1.32-.7-.45-.62-.46-1.5,0-2.11.48-.64,1.27-.7,1.42-.7.41-.01.74-.36.73-.77-.01-.41-.35-.76-.77-.73-.12,0-.35.02-.63.08-1-.62-1.32-1.93-.71-2.95.55-.92,1.69-1.28,2.66-.89-.02.17-.05.33-.05.5,0,.41.34.75.75.75s.75-.34.75-.75c0-1.24,1.01-2.25,2.25-2.25s2.25,1.01,2.25,2.25c0,.41.34.75.75.75s.75-.34.75-.75c0-.17-.03-.34-.05-.5.97-.39,2.1-.03,2.66.89.29.49.38,1.07.24,1.64-.14.55-.48,1.01-.95,1.31-.27-.06-.5-.08-.63-.08,0,0-.01,0-.02,0-.4,0-.74.32-.75.73-.01.41.31.76.73.77.15,0,.94.06,1.42.7.45.6.45,1.49,0,2.11Z"/>
</svg>