<?xml version="1.0" encoding="UTF-8"?>
<svg id="carrot" xmlns="http://www.w3.org/2000/svg" viewBox="0 0 24 24">
  <defs>
    <style>
      .cls-1 {
        stroke-width: 0px;
      }
    </style>
  </defs>
  <path class="cls-1" d="m18.22,5.59c.03-.74-.25-1.46-.78-1.98l-.17-.17c-.88-.88-2.25-1.01-3.26-.38-.5-.51-1.18-.8-1.9-.8h-.24c-.66,0-1.3.26-1.79.71-.98-.51-2.24-.35-3.07.48l-.17.17c-.52.52-.81,1.25-.78,1.98.03.73.34,1.38.91,1.86.62.53,1.3,1,2.02,1.41-.56.45-.95,1.1-1.03,1.87-.19,1.83-.09,3.66.3,5.44.33,1.49.85,2.94,1.56,4.29.42.8,1.25,1.3,2.17,1.3s1.75-.5,2.17-1.3c.71-1.36,1.24-2.8,1.56-4.29.39-1.78.49-3.61.3-5.44-.07-.71-.41-1.33-.91-1.77.78-.43,1.52-.93,2.21-1.51.54-.47.86-1.12.89-1.85Zm-6.34-1.84h.24c.32,0,.63.14.85.37.21.22.31.51.28.82-.09,1.13-.35,2.24-.77,3.31h-.97c-.41-1.07-.68-2.18-.77-3.33-.02-.29.08-.58.28-.8.22-.24.53-.37.85-.37Zm-4.31,1.78c-.01-.32.11-.64.34-.86l.17-.17c.34-.34.84-.42,1.24-.24-.06.26-.1.53-.07.81.07.84.22,1.66.45,2.47-.62-.36-1.21-.77-1.77-1.24-.22-.19-.35-.46-.36-.76Zm5.27,14.23c-.32.61-1.36.61-1.68,0-.5-.96-.9-1.97-1.2-3.01h1.04c.41,0,.75-.34.75-.75s-.34-.75-.75-.75h-1.37c-.26-1.44-.32-2.9-.17-4.37.07-.64.6-1.13,1.25-1.13h2.59c.64,0,1.18.48,1.25,1.13.01.12.01.25.02.37h-1.56c-.41,0-.75.34-.75.75s.34.75.75.75h1.61c-.02,1.04-.12,2.07-.34,3.09-.3,1.36-.78,2.68-1.43,3.92Zm3.5-13.45c-.64.55-1.35,1.02-2.1,1.42.26-.87.43-1.77.51-2.69.02-.21,0-.42-.04-.63.43-.36,1.09-.33,1.5.09l.17.17c.23.23.35.54.34.86-.01.3-.14.57-.38.78Z"/>
</svg>