<?xml version="1.0" encoding="UTF-8"?>
<svg id="Layer_3" xmlns="http://www.w3.org/2000/svg" version="1.1" viewBox="0 0 24 24">
  <!-- Generator: Adobe Illustrator 29.6.1, SVG Export Plug-In . SVG Version: 2.1.1 Build 9)  -->
  <defs>
    <style>
      .st0 {
        fill: #fff;
      }
    </style>
  </defs>
  <path class="st0" d="M16.28,7.46c.29-.04.49.14.49.43s-.39.8-.58,1.05c-1.07,1.36-2.65,2.74-3.84,4.05-1.33,1.46-3.53,4.52-5.41,5.05-.58.16-.86.16-.78-.52.22-1.82,3.76-4.42,5.12-5.65,1.24-1.13,2.42-2.4,3.66-3.51.28-.25.99-.85,1.35-.9h-.01Z"/>
  <path class="st0" d="M15.5,6.77c-1.67,1.24-3.07,2.81-4.6,4.21s-3.82,3.01-4.94,4.79c-.21.34-.36.73-.61,1.04-.49-1.52-.02-3.1,1.26-4.05,1.08-.8,2.23-1.48,3.32-2.33,1.23-.97,2.3-2.09,3.48-3.06.58-.48,1.33-.79,2.09-.6Z"/>
  <path class="st0" d="M17.49,8.7v.86c0,.8-1.58,2.23-2.12,2.85-1.01,1.17-1.99,2.38-2.89,3.65-1.15,1.61-1.76,3.19-4.17,3-.07,0-.95-.15-.86-.26,1.12-.47,2.11-1.29,2.93-2.17.96-1.02,1.84-2.18,2.8-3.22,1.32-1.45,3.13-3,4.19-4.6.04-.06-.01-.13.13-.1h0Z"/>
  <path class="st0" d="M17.91,7.34c-.28-.33-.53-.67-.89-.92l1.07-.55.5.34-.68,1.12h0Z"/>
  <g>
    <path d="M9.52,4.8s.25.01.34.03c1.11.28,1.6,1.24,1.05,2.28-.07.14-.51.67-.42.78,1.4.29,1.54,2.3.23,2.82-.28.11-.58.09-.82.17-.45.16-.21,1.1-.35,1.49l3.62-3.63c.21-.5-.18-.6-.36-.95-.7-1.4.79-2.73,2.12-2,.09-.02.26-.96.35-1.16.34-.72,1.25-.99,1.97-.69.16.07.45.33.54.34.12.01.34-.11.52-.12.94-.06,1.72.79,1.6,1.72-.02.14-.13.28-.11.41.01.1.24.32.3.46.27.55.2,1.22-.19,1.69-.44.52-1.05.47-1.62.71.73,1.32-.61,2.81-2,2.12-.35-.18-.45-.56-.95-.36l-3.62,3.6,1.07-.03c.57-.09.41-.63.57-1.06.5-1.34,2.54-1.23,2.84.19.09.07.8-.45.97-.52,1-.4,1.84.17,2.09,1.15.02.1.01.32.03.34.01.01.23.08.34.16.77.61.92,1.78.09,2.41-.11.08-.36.16-.41.23-.06.1-.06.39-.1.54-.29.9-1.29,1.3-2.14.89-.12-.06-.81-.56-.87-.5-.34,1.45-2.35,1.6-2.86.15-.13-.36-.03-.91-.49-.97-.7-.09-1.77.16-2.44.42-1.52.61-2.6,1.9-3.74,3.01l-3.52-3.52c1.11-1.14,2.41-2.22,3.01-3.74.26-.66.52-1.73.42-2.44-.06-.46-.61-.36-.97-.49-1.45-.51-1.31-2.52.15-2.86.06-.06-.44-.75-.5-.87-.39-.83-.03-1.84.85-2.13.16-.05.48-.05.58-.12.08-.05.13-.28.21-.37.65-.84,1.8-.75,2.44.06.08.1.14.32.16.34ZM8.64,5.8c.22-1.31-1.22-1.31-.99,0h-1.02c-.25,0-.61.38-.48.66l1.44,2.37h-1.54c-.27,0-.51.42-.39.68.17.4.6.28.95.39,1.45.47,1.06,2.36.74,3.48-.47,1.64-1.52,2.84-2.72,3.98l.67.72c.84-.81,1.66-1.61,2.25-2.64.68-1.18.94-2.28,1.1-3.62.09-.76-.08-1.34.76-1.8.5-.27,1.38-.06,1.2-.86-.03-.12-.26-.33-.36-.33h-1.54l1.45-2.43c.06-.25-.25-.6-.49-.6h-1.02ZM16.38,8.54l2.52-.6c.95-.49-.09-1.07-.48-1.53,1.1-.83.1-1.83-.73-.73-.46-.38-1.04-1.42-1.53-.48l-.6,2.52c-.53-.18-1.04-1.41-1.66-1.05-.55.31-.06.73.1,1.01.36.63.33,1.26-.13,1.82-1.3,1.61-3.3,3.06-4.66,4.66l-.46,1.19,1.19-.46c1.6-1.36,3.05-3.36,4.66-4.66.49-.39.99-.48,1.58-.24.41.16.68.69,1.13.33.19-.15.24-.38.14-.61-.07-.17-.81-.76-.99-.99-.05-.06-.11-.07-.09-.17ZM15.27,18.06c.08-.44-.06-1.08,0-1.54l2.37,1.44c.28.13.66-.23.66-.48v-1.02c1.31.23,1.31-1.21,0-.99v-1.02c0-.23-.35-.55-.6-.49l-2.43,1.45v-1.54c0-.1-.21-.34-.33-.36-.8-.18-.59.71-.86,1.2-.46.84-1.04.68-1.8.76-2.66.3-4.51,1.34-6.26,3.35l.72.67c1.15-1.2,2.35-2.25,3.98-2.72,1.11-.32,3.01-.71,3.48.74.11.35,0,.77.39.95.28.12.63-.09.68-.39Z"/>
    <path class="st0" d="M15.27,18.06c-.05.3-.4.51-.68.39-.4-.17-.28-.6-.39-.95-.47-1.45-2.36-1.06-3.48-.74-1.64.47-2.84,1.52-3.98,2.72l-.72-.67c1.75-2,3.6-3.05,6.26-3.35.76-.08,1.34.07,1.8-.76.27-.5.06-1.38.86-1.2.12.03.33.26.33.36v1.54l2.43-1.45c.25-.06.6.25.6.49v1.02c1.31-.22,1.31,1.22,0,.99v1.02c0,.25-.38.61-.66.48l-2.37-1.44c-.06.46.08,1.1,0,1.54Z"/>
    <path class="st0" d="M8.64,5.8h1.02c.23,0,.55.35.49.6l-1.45,2.43h1.54c.1,0,.34.21.36.33.18.8-.71.59-1.2.86-.84.46-.67,1.04-.76,1.8-.15,1.34-.42,2.44-1.1,3.62-.59,1.03-1.41,1.82-2.25,2.64l-.67-.72c1.2-1.15,2.25-2.35,2.72-3.98.32-1.11.71-3.01-.74-3.48-.35-.11-.77,0-.95-.39-.11-.26.12-.68.39-.68h1.54l-1.44-2.37c-.13-.28.23-.66.48-.66h1.02c-.23-1.31,1.21-1.31.99,0Z"/>
    <path class="st0" d="M16.38,8.54c-.03.1.04.12.09.17.18.23.91.82.99.99.1.23.05.46-.14.61-.45.36-.71-.17-1.13-.33-.59-.24-1.09-.15-1.58.24-1.61,1.3-3.06,3.3-4.66,4.66l-1.19.46.46-1.19c1.36-1.6,3.36-3.05,4.66-4.66.45-.56.49-1.19.13-1.82-.16-.28-.65-.7-.1-1.01.63-.35,1.14.87,1.66,1.05l.6-2.52c.49-.95,1.07.09,1.53.48.83-1.1,1.83-.1.73.73.38.46,1.42,1.04.48,1.53l-2.52.6Z"/>
  </g>
</svg>