<?xml version="1.0" encoding="UTF-8"?>
<svg id="Layer_3" xmlns="http://www.w3.org/2000/svg" version="1.1" viewBox="0 0 24 24">
  <!-- Generator: Adobe Illustrator 29.6.1, SVG Export Plug-In . SVG Version: 2.1.1 Build 9)  -->
  <defs>
    <style>
      .st0 {
        fill: #fff;
      }
    </style>
  </defs>
  <path class="st0" d="M23.33.67v22.67H.67V.67h22.67ZM11.46,1.87c-.18.04-1.28.77-1.51.93-4.28,3.03-4.03,9.7-2.65,14.19.55,1.81,1.65,4.68,3.84,4.88s3.38-.13,4.5-2.09c1.98-3.47,2.73-9.63,1.27-13.37-.72-1.85-2.26-3.58-4.06-4.44-.44-.21-.44-.04-.78-.02-.18,0-.32-.13-.61-.08Z"/>
  <path d="M11.46,1.87c.28-.06.42.08.61.08.34-.02.34-.19.78.02,1.8.86,3.34,2.59,4.06,4.44,1.46,3.74.71,9.9-1.27,13.37-1.12,1.96-2.27,2.29-4.5,2.09s-3.29-3.07-3.84-4.88c-1.37-4.49-1.63-11.17,2.65-14.19.22-.16,1.32-.89,1.51-.93ZM11.11,21.34c.6,0,.86.23,1.26-.31.62-.83.68-2.39.5-3.37s-.68-1.49-.41-2.56c.3-1.16.81-1.83.64-3.16-.1-.75-.44-1.09-.68-1.71-.45-1.18.4-2.23.29-3.52-.08-.97-.86-1.55-.8-2.57.01-.22.11-.42.13-.62.04-.36-.02-.95-.37-1.13-.08,0-.16.04-.23.08-.32.17-.83.51-1.13.73-.13.09-.86.66-.89.74-.02.04.09.24.11.34.1.73-.56,1.73-.79,2.41.05.05.5-.33.55-.4.18-.21.29-.81.66-.58.28.18-.12.78-.28.96-.28.31-1.1.69-1.23.93-.08.14-.18.63-.21.8-.08.39-.07.87-.15,1.22-.07.31-.55.32-.53-.22.04-.82.3-1.79.58-2.57.23-.64.82-1.69.89-2.3,0-.04.02-.15-.04-.09-2.95,3.66-2.3,10.33-.41,14.35.42.89,1.06,2.05,2.04,2.36.33-3.41-2.19-6.22-2.86-9.42-.07-.33-.19-.95-.19-1.27,0-.25.36-.33.49-.18.09.12.1.72.14.92,0,.04.02.13.08.12.34-.87,1.56-1.38,1.89-2.2.09-.23.11-.85.42-.84.54.02.05,1.12-.11,1.37-.37.57-1.02.96-1.45,1.47-.18.22-.58.82-.58,1.1,0,.22.23.77.32,1.01.23.63.54,1.23.79,1.85.08.07.2-.25.25-.31.3-.41.76-.84.97-1.29.14-.3.14-1.01.57-.88.39.12-.08,1.1-.21,1.32-.27.47-1.19,1.35-1.22,1.84,0,.16.52,1.27.62,1.54.18.49.36,1.01.44,1.53.07.07.4-.37.43-.43.12-.2.18-.73.39-.77.56-.09.23.74.1.99-.2.36-.52.57-.77.87.09.61.07,1.21.03,1.82ZM15.5,7.09c-.18-.82-1.04-1.97-.93-2.81.01-.09.13-.3.11-.34-.05-.1-.78-.66-.92-.76-.31-.22-.78-.53-1.11-.71-.08-.04-.16-.09-.25-.08.14.37.22.77.17,1.17-.02.18-.11.39-.13.58-.05.78.56,1.35.72,2.11.25,1.14-.09,1.74-.31,2.77-.24,1.08.68,1.8.78,2.91.13,1.46-.33,2.02-.66,3.28-.24.92.32,1.48.4,2.37l.86-1.72c.04-.21-.57-.89-.12-.97.31-.06.25.11.46.26l.73-1.72c.32-.28.53-.06.42.33-.42,1.58-1.64,3.32-2.19,4.89-.07.95-.19,1.9-.73,2.7,1.77-.09,2.66-2.17,3.19-3.61,1.46-3.99,1.96-9.78-.84-13.28-.08-.06-.04.14-.03.17.12.67.62,1.52.86,2.19.64,1.77.78,3.45.31,5.29-.04.17-.25.9-.34.99-.2.17-.46,0-.44-.26.01-.15.16-.37.16-.5.02-.46-1.64-1.58-1.71-2.3-.02-.25.2-.41.41-.28.05.03.25.48.34.6.24.34.75.84,1.06,1.15.04.04.06.1.11.02.24-1.19.21-2.43-.11-3.6-.48-.37-1.1-.62-1.38-1.2-.1-.22-.2-.63.16-.61.24.01.23.24.32.39.16.25.36.46.63.59Z"/>
  <path class="st0" d="M11.11,21.34c.05-.61.06-1.21-.03-1.82.25-.3.57-.51.77-.87.13-.24.46-1.08-.1-.99-.2.03-.27.56-.39.77-.03.06-.37.5-.43.43-.08-.51-.26-1.04-.44-1.53-.1-.27-.63-1.38-.62-1.54.02-.49.94-1.37,1.22-1.84.13-.22.6-1.2.21-1.32-.42-.13-.43.58-.57.88-.21.45-.67.88-.97,1.29-.04.06-.17.38-.25.31-.25-.62-.55-1.22-.79-1.85-.09-.24-.32-.78-.32-1.01,0-.28.4-.88.58-1.1.43-.52,1.08-.9,1.45-1.47.17-.26.66-1.35.11-1.37-.31-.01-.33.61-.42.84-.34.82-1.55,1.33-1.89,2.2-.06.01-.07-.08-.08-.12-.04-.2-.05-.8-.14-.92-.12-.15-.48-.07-.49.18,0,.32.12.94.19,1.27.67,3.2,3.19,6.01,2.86,9.42-.98-.31-1.63-1.47-2.04-2.36-1.89-4.02-2.55-10.69.41-14.35.07-.06.05.05.04.09-.06.61-.66,1.66-.89,2.3-.28.78-.54,1.75-.58,2.57-.02.54.46.53.53.22.08-.36.07-.83.15-1.22.03-.18.14-.67.21-.8.14-.24.95-.62,1.23-.93.16-.18.56-.77.28-.96-.36-.23-.47.37-.66.58-.06.07-.5.44-.55.4.23-.68.89-1.68.79-2.41-.01-.09-.13-.3-.11-.34.04-.08.77-.65.89-.74.3-.21.82-.56,1.13-.73.07-.04.15-.09.23-.08.35.18.41.77.37,1.13-.02.2-.12.41-.13.62-.06,1.02.71,1.6.8,2.57.11,1.29-.73,2.34-.29,3.52.24.62.58.96.68,1.71.18,1.33-.34,2-.64,3.16-.27,1.07.23,1.58.41,2.56s.12,2.54-.5,3.37c-.4.54-.66.32-1.26.31Z"/>
  <path class="st0" d="M15.5,7.09c-.27-.13-.47-.34-.63-.59-.09-.14-.08-.37-.32-.39-.36-.02-.27.39-.16.61.28.58.9.83,1.38,1.2.32,1.17.35,2.41.11,3.6-.05.07-.07.02-.11-.02-.31-.31-.82-.81-1.06-1.15-.09-.12-.29-.57-.34-.6-.21-.13-.43.03-.41.28.07.72,1.73,1.84,1.71,2.3,0,.13-.15.35-.16.5-.02.26.24.43.44.26.1-.09.3-.81.34-.99.47-1.84.33-3.51-.31-5.29-.24-.67-.74-1.53-.86-2.19,0-.02-.05-.23.03-.17,2.8,3.51,2.3,9.29.84,13.28-.53,1.44-1.42,3.52-3.19,3.61.54-.8.66-1.75.73-2.7.56-1.57,1.77-3.31,2.19-4.89.11-.39-.1-.62-.42-.33l-.73,1.72c-.2-.15-.14-.31-.46-.26-.45.08.16.76.12.97l-.86,1.72c-.08-.88-.64-1.44-.4-2.37.33-1.26.79-1.82.66-3.28-.1-1.11-1.02-1.82-.78-2.91s.56-1.64.31-2.77c-.16-.76-.78-1.33-.72-2.11.01-.19.11-.4.13-.58.04-.4-.03-.8-.17-1.17.1-.01.17.04.25.08.33.18.79.49,1.11.71.14.1.88.66.92.76.02.04-.09.24-.11.34-.12.84.74,1.98.93,2.81Z"/>
</svg>