<?xml version="1.0" encoding="UTF-8"?>
<svg id="chili" xmlns="http://www.w3.org/2000/svg" viewBox="0 0 24 24">
  <defs>
    <style>
      .cls-1 {
        stroke-width: 0px;
      }
    </style>
  </defs>
  <path class="cls-1" d="m19.52,5.46c-.92-.88-2.04-1.11-2.81-1.18,0-.01,0-.02,0-.04.13-.37.5-.52.55-.54.39-.14.59-.57.45-.96-.14-.39-.57-.59-.96-.45-.26.09-1.12.48-1.45,1.46-.06.17-.09.35-.1.53-.77.08-1.82.33-2.7,1.17-1.31,1.24-1.4,2.96-1.33,3.88.03.42.26.79.62.99.14.08.29.12.44.14-.08,1.14-.37,2.21-.88,3.18-1.55,2.93-4.63,4.02-6.32,4.41-.5.12-.88.52-.96,1.03-.08.5.15.99.58,1.26,1.12.68,3.12,1.63,5.49,1.63.66,0,1.35-.07,2.06-.25,4.55-1.14,7.73-5.92,7.58-11.25.16-.02.32-.06.46-.15.36-.21.6-.58.62-.99.06-.92-.02-2.64-1.33-3.88Zm-6,1.09c.84-.79,1.95-.79,2.48-.79s1.65,0,2.48.79c.69.66.88,1.56.88,2.3l-.81-.4c-.35-.17-.77-.17-1.12,0l-1.44.72-1.44-.72c-.18-.09-.37-.13-.56-.13s-.38.04-.56.13l-.81.4c0-.74.19-1.64.88-2.3Zm-1.7,13.73c-2.35.59-4.53-.2-5.86-.9,2-.56,5.05-1.89,6.7-5.02.7-1.31,1.06-2.77,1.09-4.34,0-.02,0-.03,0-.05l.26-.13,1.44.72c.18.09.37.13.56.13s.38-.04.56-.13l1.44-.72.26.13s-.01.05-.01.08c.34,4.82-2.43,9.22-6.43,10.22Z"/>
</svg>