<?xml version="1.0" encoding="UTF-8"?>
<svg id="coconut" xmlns="http://www.w3.org/2000/svg" viewBox="0 0 24 24">
  <defs>
    <style>
      .cls-1 {
        stroke-width: 0px;
      }
    </style>
  </defs>
  <path class="cls-1" d="m19.49,8.48c-.78-1.3-2.2-2.12-3.75-2.21v-2.52s1.93.93,1.93.93c.37.18.82.02,1-.35s.02-.82-.35-1l-1.93-.93c-.47-.22-1.01-.2-1.45.08-.44.28-.7.75-.7,1.27v2.51s-5.71,0-5.71,0c-1.66,0-3.21.86-4.04,2.24-.82,1.36-1.25,2.92-1.25,4.51,0,2.49,1.07,4.87,2.93,6.53,1.61,1.43,3.69,2.22,5.84,2.22.34,0,.67-.02,1.01-.06,3.88-.44,7.09-3.57,7.63-7.43.29-2.04-.12-4.04-1.17-5.78Zm-13.71.78c.56-.93,1.62-1.51,2.76-1.51h6.92c1.13,0,2.19.58,2.75,1.51.38.63.64,1.3.81,1.99h-1.6c-.07,0-.13-.03-.18-.07l-1-1c-.68-.68-1.79-.68-2.47,0l-1,1s-.11.07-.18.07h-7.61c.17-.7.44-1.37.81-1.99Zm13.39,4.79c-.45,3.19-3.1,5.78-6.32,6.14-2.11.24-4.12-.39-5.68-1.79-1.54-1.38-2.43-3.35-2.43-5.41,0-.08.01-.17.02-.25h7.82c.47,0,.91-.18,1.24-.51l1-1c.1-.1.26-.1.35,0l1,1c.33.33.77.51,1.24.51h1.83c.01.43,0,.87-.07,1.31Z"/>
</svg>