<?xml version="1.0" encoding="UTF-8"?>
<svg id="corn" xmlns="http://www.w3.org/2000/svg" viewBox="0 0 24 24">
  <defs>
    <style>
      .cls-1 {
        stroke-width: 0px;
      }
    </style>
  </defs>
  <path class="cls-1" d="m18.48,10.42c-.17-.14-.4-.2-.62-.16-.08.02-.17.04-.26.06l-1.15-4.59c-.51-2.05-2.34-3.48-4.46-3.48s-3.94,1.43-4.46,3.48l-1.15,4.59c-.09-.02-.18-.04-.26-.06-.22-.04-.44.02-.62.16s-.27.35-.27.58v5.18c0,.67.07,1.25.22,1.88l.04.14c.54,2.09,2.43,3.55,4.6,3.55h3.79c2.17,0,4.06-1.46,4.6-3.55l.06-.22c.13-.55.2-1.13.2-1.8v-5.18c0-.22-.1-.43-.27-.58Zm-10.39-.67h1.91c.41,0,.75-.34.75-.75s-.34-.75-.75-.75h-1.54l.54-2.16c.34-1.38,1.58-2.34,3-2.34s2.66.96,3,2.34l.04.16h-1.04c-.41,0-.75.34-.75.75s.34.75.75.75h1.41l.75,3.01c-.86.34-1.79.87-2.68,1.69-.58.54-1.08,1.16-1.49,1.84-.41-.68-.91-1.3-1.49-1.84-.88-.83-1.82-1.35-2.68-1.69l.25-1.01Zm9.16,6.43c0,.54-.05,1.01-.16,1.43l-.06.22c-.37,1.42-1.66,2.42-3.14,2.42h-3.79c-1.48,0-2.78-1-3.15-2.43l-.05-.2c-.11-.43-.16-.9-.16-1.44v-4.22c.84.26,1.83.74,2.74,1.59.8.74,1.42,1.68,1.81,2.72.11.29.39.49.7.49s.59-.19.7-.49c.39-1.03,1.01-1.97,1.81-2.72.91-.85,1.9-1.33,2.74-1.59v4.22Z"/>
</svg>