<?xml version="1.0" encoding="UTF-8"?>
<svg id="durian" xmlns="http://www.w3.org/2000/svg" viewBox="0 0 24 24">
  <defs>
    <style>
      .cls-1 {
        stroke-width: 0px;
      }
    </style>
  </defs>
  <path class="cls-1" d="m18.65,13.63s-.03-.1,0-.15l1.1-1.67c.3-.46.35-1.03.14-1.54-.22-.51-.67-.87-1.22-.97l-1.72-.32c-.06-.01-.11-.06-.12-.12l-.38-1.95h0c-.1-.55-.48-1-.99-1.21-.51-.21-1.1-.16-1.55.16l-1.15.78v-2.88h1.25c.41,0,.75-.34.75-.75s-.34-.75-.75-.75h-4c-.41,0-.75.34-.75.75s.34.75.75.75h1.25v2.64l-.61-.42c-.46-.31-1.04-.38-1.55-.17-.51.21-.88.65-.99,1.18l-.41,1.96c-.01.05-.05.09-.1.1l-2.05.5c-.51.13-.92.48-1.13.96-.2.49-.16,1.02.11,1.48l1.1,1.81s.03.1,0,.15l-1.1,1.67c-.3.46-.35,1.03-.14,1.54.22.51.67.87,1.22.98l1.72.32c.06.01.11.06.12.12l.38,1.95c.1.54.47,1,.99,1.21.2.08.42.13.63.13.32,0,.64-.1.92-.28l1.64-1.11c.05-.03.12-.03.17,0l1.45.99c.46.31,1.04.38,1.55.17.51-.2.88-.65.99-1.18l.41-1.96c.01-.05.05-.09.1-.1l2.05-.5c.51-.12.92-.48,1.13-.96.2-.49.16-1.03-.11-1.48l-1.1-1.81Zm-.16-2.64l-1.1,1.67c-.34.52-.35,1.21-.03,1.75l1.1,1.81s.02.1.01.12c-.02.04-.05.07-.1.08l-2.05.5c-.61.15-1.09.64-1.21,1.26l-.41,1.96s-.04.08-.08.1c-.03.02-.09.02-.14-.02l-1.45-.99c-.56-.39-1.29-.39-1.86,0l-1.64,1.11c-.05.04-.11.03-.14.01s-.08-.04-.09-.11l-.38-1.95c-.13-.67-.65-1.18-1.32-1.31l-1.72-.32c-.07-.01-.1-.06-.11-.09-.02-.05-.02-.09.01-.13l1.1-1.67c.34-.52.36-1.21.03-1.75l-1.1-1.81s-.03-.08-.01-.12c.01-.03.04-.07.1-.08l2.05-.5c.61-.15,1.09-.64,1.22-1.26l.41-1.96s.04-.08.08-.1c.02,0,.04-.01.06-.01.03,0,.06,0,.08.03l1.44.99c.56.39,1.3.39,1.86,0l1.64-1.11c.05-.04.11-.03.14-.01s.08.04.09.11l.38,1.95c.13.67.65,1.18,1.32,1.31l1.72.32c.07.01.1.05.11.09.02.04.02.09-.01.13Z"/>
  <path class="cls-1" d="m11.53,9.47c-.29-.29-.77-.29-1.06,0l-1,1c-.29.29-.29.77,0,1.06l1,1c.15.15.34.22.53.22s.38-.07.53-.22c.29-.29.29-.77,0-1.06l-.47-.47.47-.47c.29-.29.29-.77,0-1.06Z"/>
  <path class="cls-1" d="m14.53,10.47c-.29-.29-.77-.29-1.06,0s-.29.77,0,1.06l.47.47-.47.47c-.29.29-.29.77,0,1.06.15.15.34.22.53.22s.38-.07.53-.22l1-1c.29-.29.29-.77,0-1.06l-1-1Z"/>
  <path class="cls-1" d="m13.53,14.47c-.29-.29-.77-.29-1.06,0s-.29.77,0,1.06l.47.47-.47.47c-.29.29-.29.77,0,1.06.15.15.34.22.53.22s.38-.07.53-.22l1-1c.29-.29.29-.77,0-1.06l-1-1Z"/>
  <path class="cls-1" d="m10.53,13.47c-.29-.29-.77-.29-1.06,0l-1,1c-.29.29-.29.77,0,1.06l1,1c.15.15.34.22.53.22s.38-.07.53-.22c.29-.29.29-.77,0-1.06l-.47-.47.47-.47c.29-.29.29-.77,0-1.06Z"/>
</svg>