<?xml version="1.0" encoding="UTF-8"?>
<svg id="eggplant" xmlns="http://www.w3.org/2000/svg" viewBox="0 0 24 24">
  <defs>
    <style>
      .cls-1 {
        stroke-width: 0px;
      }
    </style>
  </defs>
  <path class="cls-1" d="m18.52,5.46c-.92-.88-2.03-1.11-2.81-1.18,0-.01,0-.02,0-.04.12-.37.5-.52.55-.54.39-.14.59-.57.45-.96-.14-.39-.57-.59-.96-.45-.26.09-1.12.48-1.45,1.47-.06.19-.09.36-.1.53-.77.08-1.82.33-2.7,1.17-1.31,1.24-1.4,2.96-1.33,3.88.03.42.26.79.62,1,.08.05.17.08.26.11-.16.39-.36.77-.62,1.09-.65.79-1.57,1.33-2.74,1.6-1.31.3-2.39,1.2-2.9,2.43-.47,1.13-.37,2.36.26,3.38.11.18.24.36.38.54.76.98,1.81,1.7,3.01,2.11.61.2,1.25.3,1.89.3,1.39,0,2.82-.46,4.06-1.33.84-.59,1.58-1.29,2.21-2.08,2.32-2.94,2.39-6.26,2.22-8,.14-.02.28-.06.41-.14.36-.21.6-.58.62-.99.06-.92-.02-2.64-1.33-3.88Zm-6,1.09c.84-.79,1.95-.79,2.48-.79s1.65,0,2.48.79c.69.66.88,1.56.88,2.3l-.81-.4c-.35-.18-.77-.17-1.12,0l-1.44.72-1.44-.72c-.17-.09-.37-.13-.56-.13s-.38.04-.56.13l-.81.4c0-.74.19-1.64.88-2.3Zm2.9,10.99c-.54.68-1.17,1.28-1.89,1.78-1.43,1-3.16,1.32-4.62.83-.93-.31-1.73-.86-2.31-1.61-.1-.13-.2-.27-.28-.41-.38-.61-.43-1.32-.15-2.01.32-.78,1.02-1.35,1.85-1.54,1.51-.34,2.71-1.05,3.57-2.11.53-.66.92-1.42,1.14-2.28.02-.07.02-.15.01-.22l.26-.13,1.44.72c.17.09.37.13.56.13s.38-.04.56-.13l1.44-.72.27.13s-.01.09,0,.14c.15,1,.46,4.49-1.85,7.42Z"/>
</svg>