<?xml version="1.0" encoding="UTF-8"?>
<svg id="Layer_3" xmlns="http://www.w3.org/2000/svg" version="1.1" viewBox="0 0 24 24">
  <!-- Generator: Adobe Illustrator 29.6.1, SVG Export Plug-In . SVG Version: 2.1.1 Build 9)  -->
  <defs>
    <style>
      .st0 {
        fill: #fff;
      }
    </style>
  </defs>
  <path d="M15.08,9.98l1.09-5.41c.06-.09.13-.12.23-.16.38-.15,2.15-.5,2.56-.52.38-.01.54.06.66.44l-1.01,6c-.12,2.11.16,4.38,0,6.46-.18,2.37-2.16,4.36-4.52,4.57-1.35.12-4.27.14-5.48-.33-4.49-1.72-2.89-7.07-3.19-10.77-.15-1.88-.81-3.94-1.02-5.84.06-.49.34-.57.79-.53s2.03.35,2.44.51c.32.13.33.34.4.63.4,1.6.53,3.34.95,4.94.87-1,1.35-2.16,1.44-3.49.08-1.09,0-2.32.12-3.4.04-.32.28-.55.61-.54.24,0,1.86.35,2.04.46.14.08.27.25.29.41.17,1.74-.11,3.6.67,5.22.22.46.57.98.93,1.34ZM12.52,6.66l-.14-2.65c-.06-.17-.6-.12-.76-.23l-.13,2.88h1.02ZM6.93,5.39l-1.27-.27.77,4.63c.08.17,1.16.11,1.41.24l-.91-4.6ZM17.56,9.78l.78-4.66-1.27.26-.9,4.57,1.4-.17ZM11.4,7.75l-.07.05c-.28,1.17-.92,2.2-1.69,3.1l2.39,2.08,2.34-2.13c-.84-.85-1.37-1.95-1.72-3.08l-1.24-.02ZM6.56,10.95v6.05c0,.13.18.69.24.84.34.88,1.12,1.71,2,2.07-.7-.98-.77-2.37-.29-3.46s1.85-1.85,2.65-2.72c-1.4-1.1-2.62-2.87-4.61-2.79ZM17.51,10.95c-1.02-.06-1.86.38-2.63.99-1.72,1.37-3.31,3.05-5.03,4.45-.97,1.14-.61,3.03.76,3.66.9.41,3.47.33,4.42-.03,1.19-.45,2.48-1.97,2.48-3.28v-5.79Z"/>
  <path class="st0" d="M17.51,10.95v5.79c0,1.32-1.29,2.83-2.48,3.28-.94.36-3.51.44-4.42.03-1.37-.63-1.73-2.52-.76-3.66,1.71-1.4,3.31-3.08,5.03-4.45.77-.61,1.61-1.05,2.63-.99Z"/>
  <path class="st0" d="M6.56,10.95c1.98-.09,3.2,1.69,4.61,2.79-.81.87-2.16,1.61-2.65,2.72s-.41,2.48.29,3.46c-.87-.36-1.66-1.19-2-2.07-.06-.15-.24-.72-.24-.84v-6.05Z"/>
  <path class="st0" d="M11.4,7.75l1.24.02c.35,1.14.88,2.23,1.72,3.08l-2.34,2.13-2.39-2.08c.77-.9,1.41-1.93,1.69-3.1l.07-.05Z"/>
  <path class="st0" d="M6.93,5.39l.91,4.6c-.25-.13-1.33-.07-1.41-.24l-.77-4.63,1.27.27Z"/>
  <polygon class="st0" points="17.56 9.78 16.17 9.95 17.07 5.38 18.34 5.12 17.56 9.78"/>
  <path class="st0" d="M12.52,6.66h-1.02l.13-2.88c.16.11.7.07.76.23l.14,2.65Z"/>
</svg>