<?xml version="1.0" encoding="UTF-8"?>
<svg id="ginger" xmlns="http://www.w3.org/2000/svg" viewBox="0 0 24 24">
  <defs>
    <style>
      .cls-1 {
        stroke-width: 0px;
      }
    </style>
  </defs>
  <path class="cls-1" d="m18.83,7.4c-.42-.64-1.1-1.04-1.86-1.12-.76-.08-1.5.19-2.03.73l-.42.42c-.05-.23-.11-.45-.17-.67,0-.05-.02-.1-.04-.15-.17-.64-.36-1.27-.61-1.88,0,0-.05-.12-.05-.13-.29-.68-.86-1.2-1.58-1.42-.73-.22-1.52-.11-2.24.37-.97.65-1.38,1.88-.99,3,.18.52.32,1.05.42,1.59.13.74.19,1.48.16,2.23l-1.07-1.07c-.73-.72-1.88-.84-2.73-.27-.56.37-.91.96-.96,1.63-.05.65.19,1.28.66,1.73.04.04.08.08.12.12.27.31.31.56.4,1.06.07.45.16,1,.47,1.72,0,0,0,0,0,0,0,0,0,0,0,.01.4.93.86,1.41,1.22,1.8.33.35.57.61.76,1.15.16.47.22,1,.17,1.55-.04.51.12,1.02.46,1.39.33.36.78.56,1.27.56h2.8c.95,0,1.72-.74,1.75-1.68.05-1.65.37-3.27.95-4.81.67-1.78,1.65-3.4,2.94-4.82.75-.83.84-2.07.19-3.04Zm-1.31,2.04c-.78.87-1.46,1.82-2.04,2.81h-1.49c-.41,0-.75.34-.75.75s.34.75.75.75h.72c-.15.33-.3.65-.42.99-.19.5-.34,1-.48,1.51h-1.82c-.41,0-.75.34-.75.75s.34.75.75.75h1.5c-.13.75-.22,1.51-.24,2.27,0,.12-.12.23-.25.23h-2.8c-.07,0-.12-.02-.17-.07-.06-.06-.08-.15-.08-.25.07-.77-.02-1.5-.25-2.18-.29-.84-.71-1.29-1.08-1.68-.25-.27-.49-.52-.72-.92l.62-.62c.29-.29.29-.77,0-1.06s-.77-.29-1.06,0l-.11.11c-.02-.09-.03-.18-.05-.27-.09-.58-.19-1.17-.75-1.81-.07-.08-.14-.15-.21-.22-.19-.18-.2-.4-.19-.51.02-.21.13-.39.3-.5.11-.07.24-.11.37-.11.17,0,.34.07.47.19l2.18,2.18c.2.2.49.27.75.19.27-.08.46-.31.51-.58.26-1.42.26-2.86,0-4.27-.11-.62-.27-1.23-.48-1.82-.17-.48,0-.98.48-1.31.26-.18.59-.22.89-.13.29.09.51.29.63.56l.69-.29-.65.4c.17.41.31.84.44,1.26l-1.18.84c-.34.24-.41.71-.17,1.05.15.2.38.31.61.31.15,0,.3-.05.44-.14l.68-.49c.06.32.1.64.13.96.03.29.22.53.5.63.27.1.58.03.78-.18l1.47-1.47c.22-.22.52-.32.83-.3.31.03.59.2.79.5.24.36.21.84-.08,1.17Z"/>
</svg>