<?xml version="1.0" encoding="UTF-8"?>
<svg id="Layer_3" xmlns="http://www.w3.org/2000/svg" version="1.1" viewBox="0 0 24 24">
  <!-- Generator: Adobe Illustrator 29.6.1, SVG Export Plug-In . SVG Version: 2.1.1 Build 9)  -->
  <defs>
    <style>
      .st0 {
        fill: #fff;
      }
    </style>
  </defs>
  <path d="M14.35,13.64c-2.26,2.29-5.15,6.05-8.58,6.24-3.12.17-.97-4.6.14-5.78,2.7-2.51,5.14-5.49,7.88-7.94,1.14-1.02,2.79-1.91,4.33-2.04,2.39-.2,1.78,2.28,1.2,3.71-.86,2.13-3.35,4.16-4.98,5.81ZM18.31,5.1c-1.17.09-2.66.77-3.55,1.52-2.48,2.71-5.5,5.17-7.91,7.91-.87.98-1.66,2.51-1.74,3.84-.04.68.46.54.92.46,1.18-.19,2.28-.72,3.2-1.46,2.47-2.71,5.5-5.17,7.91-7.91.88-.99,1.63-2.45,1.73-3.79.03-.44-.12-.61-.57-.57Z"/>
  <path class="st0" d="M18.31,5.1c.45-.03.61.13.57.57-.1,1.34-.85,2.8-1.73,3.79-2.41,2.74-5.44,5.2-7.91,7.91-.92.74-2.03,1.28-3.2,1.46-.46.07-.96.21-.92-.46.07-1.33.87-2.86,1.74-3.84,2.42-2.74,5.44-5.2,7.91-7.91.89-.75,2.38-1.43,3.55-1.52ZM14.81,7.04c-1.28,1.35.56,3.34,2,2.26,1.69-1.26-.53-3.81-2-2.26ZM13.13,9.2c-1.96.24-1.6,3.21.38,3,1.87-.21,1.61-3.24-.38-3ZM10.45,11.81c-1.84.26-1.53,3.2.43,3s1.66-3.29-.43-3ZM7.83,14.43c-1.83.26-1.46,3.13.38,3,1.97-.14,1.8-3.31-.38-3Z"/>
  <path d="M14.81,7.04c1.47-1.55,3.69.99,2,2.26-1.44,1.08-3.28-.91-2-2.26ZM15.74,7.6c-.61.14-.35,1.12.26,1,.67-.13.48-1.17-.26-1Z"/>
  <path d="M7.83,14.43c2.17-.31,2.35,2.86.38,3-1.84.13-2.21-2.74-.38-3ZM8,15.4c-.67.13-.48,1.17.26,1,.61-.14.35-1.12-.26-1Z"/>
  <path d="M13.13,9.2c1.99-.24,2.25,2.79.38,3-1.98.22-2.33-2.76-.38-3ZM13.28,10.18c-.72.02-.57,1.09.05,1.05s.62-1.07-.05-1.05Z"/>
  <path d="M10.45,11.81c2.09-.3,2.32,2.8.43,3s-2.28-2.73-.43-3ZM10.62,12.78c-.66.11-.51,1.11.14,1.04.73-.08.48-1.14-.14-1.04Z"/>
  <path class="st0" d="M15.74,7.6c.74-.17.93.87.26,1-.61.12-.86-.86-.26-1Z"/>
  <path class="st0" d="M8,15.4c.61-.12.86.86.26,1-.74.17-.93-.87-.26-1Z"/>
  <path class="st0" d="M13.28,10.18c.68-.02.7,1.02.05,1.05s-.78-1.03-.05-1.05Z"/>
  <path class="st0" d="M10.62,12.78c.62-.1.87.96.14,1.04-.64.07-.79-.94-.14-1.04Z"/>
</svg>