<?xml version="1.0" encoding="UTF-8"?>
<svg id="lemon" xmlns="http://www.w3.org/2000/svg" viewBox="0 0 24 24">
  <defs>
    <style>
      .cls-1 {
        stroke-width: 0px;
      }
    </style>
  </defs>
  <path class="cls-1" d="m14.52,4.47c-.67-.39-1.18-.92-1.48-1.56-.19-.41-.59-.67-1.04-.67s-.84.25-1.04.67c0,0,0,0,0,0-.3.63-.81,1.17-1.48,1.56-2.61,1.51-4.23,4.39-4.23,7.53s1.62,6.02,4.23,7.53c.67.39,1.18.92,1.48,1.56.19.41.59.67,1.04.67s.84-.25,1.04-.67c.3-.63.81-1.17,1.48-1.56,2.61-1.51,4.23-4.39,4.23-7.53s-1.62-6.02-4.23-7.53Zm-.75,13.76c-.73.42-1.34.99-1.77,1.65-.43-.66-1.03-1.22-1.77-1.65-2.15-1.24-3.48-3.63-3.48-6.23s1.33-4.99,3.48-6.23c.73-.42,1.34-.99,1.77-1.65.43.66,1.03,1.22,1.77,1.65,2.15,1.24,3.48,3.63,3.48,6.23s-1.33,4.99-3.48,6.23Z"/>
</svg>