<?xml version="1.0" encoding="UTF-8"?>
<svg id="lettuce" xmlns="http://www.w3.org/2000/svg" viewBox="0 0 24 24">
  <defs>
    <style>
      .cls-1 {
        stroke-width: 0px;
      }
    </style>
  </defs>
  <path class="cls-1" d="m18.12,13.34c-.42-1.14-.89-2.43-.83-3.88.01-.36.06-.71.14-1.06.32-1.48-.04-3-.99-4.19-1-1.24-2.52-1.96-4.16-1.96h-.55c-1.65,0-3.16.71-4.16,1.96-.95,1.18-1.31,2.71-.99,4.19.08.35.12.71.14,1.06.06,1.45-.41,2.74-.83,3.88-.54,1.46-1.04,2.83-.15,4.03.68.91,1.95,1.38,3.76,1.38.08,0,.16,0,.24,0h1.51v2.25c0,.41.34.75.75.75s.75-.34.75-.75v-2.25h1.51c1.96.03,3.31-.43,4.01-1.38.88-1.2.38-2.57-.16-4.03Zm-1.05,3.14c-.39.53-1.34.8-2.78.77h-1.53v-4.78l1.59-.79c.37-.19.52-.64.34-1.01-.19-.37-.64-.52-1.01-.34l-.91.46v-3.79c0-.41-.34-.75-.75-.75s-.75.34-.75.75v.79l-.91-.46c-.37-.18-.82-.03-1.01.34-.19.37-.04.82.34,1.01l1.59.79v4.32l-.91-.46c-.37-.18-.82-.03-1.01.34-.19.37-.04.82.34,1.01l1.59.79v1.78h-1.53c-1.42.04-2.39-.24-2.78-.77-.39-.52-.13-1.3.36-2.62.44-1.21,1-2.71.92-4.46-.02-.44-.08-.89-.17-1.33-.23-1.03.03-2.1.69-2.92.71-.89,1.8-1.4,2.99-1.4h.55c1.19,0,2.28.51,2.99,1.4.67.83.92,1.89.69,2.92-.1.44-.15.88-.17,1.33-.07,1.75.48,3.25.92,4.46.49,1.32.74,2.1.36,2.62Z"/>
</svg>