<?xml version="1.0" encoding="UTF-8"?>
<svg id="mushroom" xmlns="http://www.w3.org/2000/svg" viewBox="0 0 24 24">
  <defs>
    <style>
      .cls-1 {
        stroke-width: 0px;
      }
    </style>
  </defs>
  <path class="cls-1" d="m15.68,2.81c-1.65-.49-3.01-.56-3.68-.56-1.23,0-2.45.18-3.62.53-3.61,1.08-6.13,4.52-6.13,8.36,0,.67.29,1.3.81,1.73.52.43,1.2.62,1.87.5,1.06-.19,2.13-.33,3.2-.43l-.68,5.45c-.17,1.34.64,2.6,1.93,2.98.85.25,1.74.38,2.62.38s1.73-.12,2.57-.37c1.32-.38,2.15-1.64,1.98-2.99l-.68-5.45c1.07.1,2.14.24,3.2.43.14.02.27.04.41.04.53,0,1.05-.19,1.46-.53.51-.43.81-1.06.81-1.73,0-3.84-2.5-7.26-6.07-8.33Zm-.61,15.76c.08.62-.31,1.19-.91,1.36-1.43.41-2.94.41-4.36-.01-.58-.17-.95-.74-.87-1.35l.72-5.75c1.56-.09,3.13-.09,4.7,0l.72,5.75Zm4.91-6.85c-.18.15-.41.21-.64.17-2.42-.43-4.88-.65-7.33-.65s-4.92.22-7.33.65c-.23.04-.47-.02-.64-.17-.18-.15-.27-.35-.27-.6,0-3.18,2.08-6.02,5.06-6.92,1.03-.31,2.11-.47,3.19-.47.58,0,1.78.07,3.25.5,2.95.88,5,3.71,5,6.89,0,.23-.1.44-.27.58Z"/>
</svg>