<?xml version="1.0" encoding="UTF-8"?>
<svg id="nut" xmlns="http://www.w3.org/2000/svg" viewBox="0 0 24 24">
  <defs>
    <style>
      .cls-1 {
        stroke-width: 0px;
      }
    </style>
  </defs>
  <path class="cls-1" d="m21.4,6.64c-.28-1.13-.92-2.16-1.88-2.97-1.38-1.19-3.2-1.65-4.97-1.29-1.86.38-3.42,1.61-4.27,3.35-.48.99-1.12,1.88-1.9,2.66-.78.78-1.67,1.42-2.66,1.9-1.75.85-2.97,2.41-3.35,4.27-.37,1.77.1,3.59,1.29,4.97.82.95,1.84,1.6,2.97,1.88.95.23,1.91.34,2.87.34,3.21,0,6.36-1.26,8.67-3.57,3-3,4.23-7.42,3.23-11.54Zm-11.96,2.81c.89-.89,1.63-1.92,2.19-3.06,0,0,0,0,0,0,.38.29.58.78.46,1.25-.28,1.08-.81,2.02-1.58,2.79-.77.77-1.7,1.3-2.79,1.58-.45.12-.93-.07-1.22-.42,1.09-.55,2.08-1.26,2.94-2.12Zm7.67,7.67c-2.63,2.63-6.51,3.71-10.12,2.83-.82-.2-1.58-.68-2.19-1.4-.88-1.03-1.23-2.37-.96-3.69.2-.96.7-1.8,1.41-2.45.51.7,1.32,1.12,2.18,1.12.22,0,.45-.03.67-.09,1.34-.35,2.51-1.01,3.47-1.97.96-.96,1.62-2.13,1.97-3.47.28-1.1-.17-2.21-1.05-2.85.64-.66,1.45-1.13,2.37-1.31.29-.06.59-.09.88-.09,1.02,0,2.01.36,2.81,1.05.71.61,1.19,1.37,1.39,2.19.88,3.62-.2,7.49-2.83,10.12Z"/>
</svg>