<?xml version="1.0" encoding="UTF-8"?>
<svg id="okra" xmlns="http://www.w3.org/2000/svg" viewBox="0 0 24 24">
  <defs>
    <style>
      .cls-1 {
        stroke-width: 0px;
      }
    </style>
  </defs>
  <path class="cls-1" d="m15.4,7.84c.16-.29.22-.63.13-.95-.09-.34-.33-.63-.65-.79l-1.13-.56v-1.54c0-.96-.79-1.75-1.75-1.75s-1.75.79-1.75,1.75v1.54l-1.13.56c-.32.16-.55.45-.65.79-.09.32-.03.66.13.95-.23.72-.36,1.44-.35,2.17,0,1.48.49,2.58.76,3.17l.06.13c.63,1.44.9,3.38.82,5.77-.03.8.24,1.55.74,2.07.38.4.87.61,1.38.61s1-.22,1.38-.61c.5-.51.77-1.27.74-2.07-.09-2.39.19-4.33.82-5.77l.06-.13c.26-.59.75-1.69.75-3.17,0-.72-.12-1.45-.35-2.17Zm-4.06-1.16c.25-.13.41-.39.41-.67v-2c0-.28.5-.28.5,0v2c0,.28.16.54.41.67l1.29.64c-.47.59-1.18.94-1.95.94s-1.48-.35-1.95-.94l1.29-.64Zm2.29,5.89l-.06.14c-.72,1.64-1.04,3.81-.94,6.42.01.38-.11.75-.32.97-.14.14-.47.14-.6,0-.21-.22-.33-.59-.32-.97.09-2.62-.22-4.78-.94-6.42l-.06-.14c-.23-.52-.62-1.4-.62-2.56,0-.3.03-.6.08-.9.64.41,1.39.65,2.17.65s1.54-.23,2.17-.65c.05.3.08.6.08.9,0,1.17-.39,2.04-.62,2.56Z"/>
</svg>