<?xml version="1.0" encoding="UTF-8"?>
<svg id="papaya" xmlns="http://www.w3.org/2000/svg" viewBox="0 0 24 24">
  <defs>
    <style>
      .cls-1 {
        stroke-width: 0px;
      }
    </style>
  </defs>
  <path class="cls-1" d="m18.73,13.81c-.22-.84-.5-1.38-.76-1.9-.22-.43-.45-.88-.68-1.56-.36-1.07-.54-2.19-.53-3.35,0-2.62-2.13-4.75-4.75-4.75s-4.75,2.13-4.75,4.75h0c0,1.1-.16,2.18-.48,3.2-.23.73-.48,1.21-.71,1.66-.27.53-.56,1.09-.79,1.98-.25.97-.71,2.78.05,4.46,1.52,3.34,6.16,3.44,6.68,3.44s5.17-.1,6.68-3.44c.77-1.69.29-3.56.04-4.5Zm-1.41,3.88c-1.15,2.53-5.15,2.56-5.32,2.56s-4.17-.03-5.32-2.56c-.55-1.21-.18-2.62.04-3.5.18-.7.4-1.13.66-1.63.25-.49.54-1.04.81-1.9.37-1.17.56-2.4.56-3.66,0-1.79,1.46-3.25,3.25-3.25s3.25,1.46,3.25,3.25c0,1.32.2,2.61.61,3.83.26.79.53,1.31.77,1.77.25.49.47.91.65,1.63.2.79.58,2.25.03,3.47Z"/>
  <path class="cls-1" d="m13.79,10.26c-.55-.8-.94-1.38-1.04-2.33-.04-.38-.36-.67-.75-.67s-.71.29-.75.67c-.1.95-.49,1.53-1.04,2.33-.27.39-.58.84-.87,1.38-.74,1.35-1.66,3.03-1.04,4.63.2.53.56,1,1.07,1.39.76.59,1.7.89,2.63.89s1.87-.3,2.63-.89c.5-.39.86-.86,1.07-1.39.62-1.6-.3-3.28-1.04-4.63-.3-.54-.6-.99-.87-1.38Zm.51,5.47c-.1.27-.3.52-.59.75-.99.77-2.43.77-3.43,0-.29-.22-.48-.47-.59-.74-.37-.95.37-2.29.96-3.37.26-.48.53-.87.79-1.26.19-.28.38-.55.55-.84.17.29.36.56.55.84.26.38.53.78.79,1.26.59,1.08,1.33,2.42.96,3.37Z"/>
  <path class="cls-1" d="m12.89,13.29c-.41,0-.74.34-.74.75s.34.75.75.75.75-.34.75-.75-.33-.75-.75-.75h-.01Z"/>
  <path class="cls-1" d="m11,14.22h-.01c-.41,0-.74.34-.74.75s.34.75.75.75.75-.34.75-.75-.34-.75-.75-.75Z"/>
</svg>