<?xml version="1.0" encoding="UTF-8"?>
<svg id="paprika" xmlns="http://www.w3.org/2000/svg" viewBox="0 0 24 24">
  <defs>
    <style>
      .cls-1 {
        stroke-width: 0px;
      }
    </style>
  </defs>
  <path class="cls-1" d="m21.12,8.11c-.63-.9-1.61-1.51-2.7-1.66l-1.07-.15c-.94-.13-1.89.09-2.68.6-.61-.39-1.32-.62-2.06-.63-.03-.29-.03-.64.1-1.02.36-1.05,1.35-1.46,1.55-1.54.39-.14.59-.57.45-.96-.14-.39-.57-.59-.96-.45-.31.11-1.88.76-2.45,2.46-.19.56-.22,1.08-.18,1.53-.62.06-1.21.25-1.73.58-.79-.49-1.72-.7-2.64-.57l-1.07.15c-1.09.16-2.07.76-2.7,1.66-.63.9-.85,2.04-.62,3.11l1.6,7.4c.4,1.84,2.05,3.13,3.89,3.13.18,0,.37-.01.56-.04.55-.08,1.07-.27,1.53-.56.61.38,1.32.6,2.08.6s1.51-.23,2.13-.62c.47.3,1.01.5,1.57.58.19.03.37.04.56.04,1.84,0,3.49-1.29,3.89-3.13l1.6-7.4c.23-1.07,0-2.21-.62-3.11Zm-12.95,12.12c-1.27.18-2.49-.66-2.77-1.92l-1.6-7.4c-.15-.68,0-1.37.39-1.93.4-.57.99-.94,1.68-1.04l1.07-.15c.44-.06.88,0,1.28.17-.52.74-.79,1.64-.73,2.56l.54,7.56c.05.74.32,1.42.72,1.99-.19.08-.38.14-.59.17Zm1.36-2.27l-.54-7.56c-.05-.69.18-1.35.66-1.86.47-.51,1.12-.79,1.81-.79h1.08c.69,0,1.34.28,1.81.79.47.51.71,1.17.66,1.86l-.54,7.56c-.09,1.29-1.18,2.3-2.47,2.3s-2.37-1.01-2.47-2.3Zm10.74-7.06l-1.6,7.4c-.27,1.26-1.49,2.11-2.76,1.92-.23-.03-.45-.1-.66-.19.4-.57.66-1.24.71-1.97l.54-7.56c.06-.9-.2-1.79-.71-2.53.42-.19.88-.27,1.35-.2l1.07.15c.69.1,1.28.47,1.68,1.03.4.57.53,1.26.39,1.94Z"/>
</svg>