<?xml version="1.0" encoding="UTF-8"?>
<svg id="peas" xmlns="http://www.w3.org/2000/svg" viewBox="0 0 24 24">
  <defs>
    <style>
      .cls-1 {
        stroke-width: 0px;
      }
    </style>
  </defs>
  <path class="cls-1" d="m20.96,5.65l-2.04-3.06c-.15-.23-.41-.36-.7-.33-.28.03-.51.2-.62.46-.05.13-.12.26-.17.39-1.44-.55-3.12-.23-4.25.89-.75.75-1.17,1.76-1.17,2.82,0,.22.03.44.06.66-1.23-.2-2.53.16-3.48,1.1-.95.95-1.31,2.25-1.1,3.48-1.23-.2-2.53.16-3.48,1.1-1.13,1.13-1.45,2.81-.89,4.25-.13.06-.26.12-.39.17-.26.11-.43.34-.46.62-.03.28.1.54.33.7l3.06,2.04c.78.52,1.67.79,2.56.79.7,0,1.39-.16,2.02-.5.99-.53,1.85-1.25,2.57-2.15.42-.54.95-.93,1.53-1.15,1.04-.39,1.77-.98,2.2-1.41.64-.64,1.13-1.41,1.44-2.27.2-.55.52-1,.92-1.3,1-.74,1.79-1.66,2.37-2.75.74-1.41.63-3.16-.3-4.56Zm-7.45,1.17c0-.67.26-1.29.73-1.76.68-.68,1.68-.89,2.56-.59-.72,1.46-1.56,2.84-2.53,4.14,0,0-.02-.01-.03-.02-.47-.47-.73-1.1-.73-1.76Zm-3.86,2.82c.97-.97,2.55-.97,3.52,0,.05.05.08.12.13.17-.52.63-1.08,1.24-1.66,1.82-.58.58-1.19,1.13-1.82,1.66-.06-.05-.12-.08-.17-.13-.97-.97-.97-2.55,0-3.52Zm-4.59,4.59c.97-.97,2.55-.97,3.52,0,0,0,.02.02.02.03-1.3.97-2.68,1.81-4.14,2.53-.3-.88-.09-1.88.59-2.56Zm14.86-4.7c-.46.87-1.11,1.61-1.93,2.22-.64.48-1.14,1.17-1.44,2-.24.65-.6,1.23-1.09,1.72-.26.26-.83.75-1.66,1.07-.83.31-1.59.88-2.18,1.63-.58.74-1.29,1.33-2.12,1.77-.93.49-2.09.4-3.02-.23l-1.92-1.28c2.02-.95,3.89-2.13,5.63-3.51.04-.02.07-.05.11-.08.83-.67,1.65-1.36,2.41-2.13.74-.74,1.42-1.52,2.06-2.33.05-.05.09-.1.13-.16,1.39-1.75,2.58-3.63,3.53-5.66l1.28,1.92c.63.94.71,2.1.21,3.05Z"/>
</svg>