<?xml version="1.0" encoding="UTF-8"?>
<svg id="peach" xmlns="http://www.w3.org/2000/svg" viewBox="0 0 24 24">
  <defs>
    <style>
      .cls-1 {
        stroke-width: 0px;
      }
    </style>
  </defs>
  <path class="cls-1" d="m20.56,7.5c-1.06-1.2-2.84-1.94-4.65-1.94h-.02c-1.08,0-2.07.27-2.94.75.05-.47.01-1.05-.28-1.64-.28-.56-.75-1.04-1.33-1.33-.37-.19-.82-.04-1.01.33-.19.37-.04.82.33,1.01.17.09.48.29.67.67.31.63.03,1.28,0,1.35-.02.03-.01.07-.02.1-2.93-1.38-6.09-1.15-7.84.7-1.77,1.88-1.45,4.77-1.18,5.72.41,1.42,1.29,3.5,3.2,5.33,2.08,2,4.4,2.8,5.98,3.12.18.04.36.05.54.05s.36-.02.54-.05c1.58-.32,3.91-1.12,5.98-3.12,1.91-1.84,2.79-3.91,3.21-5.36.14-.57.74-3.52-1.17-5.67Zm-.28,5.29c-.36,1.24-1.13,3.06-2.8,4.67-1.82,1.75-3.85,2.45-5.24,2.73-.16.03-.32.03-.48,0-1.39-.28-3.42-.98-5.24-2.73-1.67-1.61-2.44-3.43-2.8-4.67-.16-.55-.48-2.89.82-4.28.71-.75,1.79-1.13,3.01-1.13,1.06,0,2.22.28,3.34.85-1.35,2.16-1.18,5.06.51,7.23.25.33.73.38,1.05.13.33-.26.38-.73.13-1.05-1.43-1.82-1.44-4.41-.03-6.04,0,0,.01-.01.02-.02.8-.91,1.98-1.42,3.32-1.42,1.38,0,2.76.55,3.54,1.43,1.44,1.63.9,4.05.84,4.3Z"/>
</svg>