<?xml version="1.0" encoding="UTF-8"?>
<svg id="Layer_2" xmlns="http://www.w3.org/2000/svg" version="1.1" viewBox="0 0 24 24">
  <!-- Generator: Adobe Illustrator 29.6.1, SVG Export Plug-In . SVG Version: 2.1.1 Build 9)  -->
  <defs>
    <style>
      .st0 {
        fill: #fff;
      }
    </style>
  </defs>
  <path class="st0" d="M22.83,1.17v21.67H1.17V1.17h21.67ZM10.82,5.33c.07.44-.05,1.04,0,1.5-.86-.36-1.79-.34-2.5.32-.07.07-.19.29-.27.3-1.15-.28-2.47.19-3.05,1.24-.91,1.65.26,3.45.71,5.05.39,1.39.15,2.52.33,3.9.26,1.96,1.89,4.18,3.95,2.57.68.89,1.37,1.49,2.56,1.16.7-.19,1.01-.69,1.51-1.16,2.12,1.38,3.53-.52,3.85-2.49.16-1,.05-2.04.19-3.02.29-2.04,1.96-3.92.9-6-.53-1.05-1.73-1.58-2.87-1.28-.77-.88-1.89-1.43-3.08-1.22-.08-1.92-1.6-3.55-3.53-3.68-.29-.02-.81-.09-.86.28-.04.23-.03.95,0,1.18.05.47.62.29.95.32.54.05,1.12.48,1.21,1.04Z"/>
  <path d="M10.82,5.33c-.09-.56-.66-.99-1.21-1.04-.34-.03-.9.15-.95-.32-.03-.24-.03-.96,0-1.18.06-.36.58-.3.86-.28,1.93.14,3.45,1.76,3.53,3.68,1.18-.21,2.31.34,3.08,1.22,1.14-.3,2.34.23,2.87,1.28,1.06,2.08-.61,3.96-.9,6-.14.98-.03,2.02-.19,3.02-.32,1.98-1.73,3.87-3.85,2.49-.5.47-.8.96-1.51,1.16-1.19.33-1.88-.27-2.56-1.16-2.06,1.61-3.69-.61-3.95-2.57-.18-1.38.06-2.51-.33-3.9-.45-1.6-1.62-3.4-.71-5.05.58-1.06,1.9-1.52,3.05-1.24.09-.01.2-.24.27-.3.71-.66,1.64-.68,2.5-.32-.05-.46.07-1.06,0-1.5ZM12.38,7.9v-1.8c0-.14-.09-.48-.13-.63-.35-1.3-1.58-2.23-2.92-2.27v.42c.76-.06,1.59.36,1.94,1.04.05.1.22.55.22.63v2.64c.06.02.13-.04.15-.04h.74ZM13.06,6.88v1.14c.41.09.77.29,1.12.51l1.25-.83c-.53-.67-1.54-.99-2.37-.82ZM10.81,7.56c-.45-.21-.97-.38-1.47-.23-.09.03-.68.31-.6.44.41.17.72.5,1.08.76.31-.19.63-.39.99-.47v-.5ZM8.29,11.56c-.2-.21.07-.88.17-1.14.2-.51.5-.97.83-1.41-.54-.63-1.6-1.17-2.44-.92-2.76.81-.97,3.76-.46,5.48.55,1.86-.24,4.62,1.28,6.09.62.59,1.43.56,1.96-.1-.12-.3-.52-.97-.5-1.28s.46-.44.63-.16c.13.21.25.73.39,1,.72,1.45,1.8,2.4,3.15.92.98-1.07,1.49-2.51,1.7-3.92.13-.29.61-.22.64.1.02.19-.1.7-.15.91-.2.89-.57,1.73-1.04,2.51,1.38,1.02,2.3-.21,2.66-1.48s.11-2.65.4-3.96c.37-1.7,2.08-4.26.47-5.71-1.05-.95-2.38-.28-3.27.53.17.26.82,1.04.32,1.26-.37.16-.46-.26-.61-.47-.41-.6-.81-.94-1.54-1.13-1.66-.42-3.05.26-3.74,1.8-.11.25-.25.95-.34,1.06-.12.15-.38.17-.52.03Z"/>
  <path class="st0" d="M8.29,11.56c.13.15.4.13.52-.03.09-.11.23-.81.34-1.06.69-1.55,2.09-2.22,3.74-1.8.73.18,1.13.52,1.54,1.13.15.22.23.64.61.47.5-.22-.14-1-.32-1.26.89-.81,2.22-1.48,3.27-.53,1.6,1.45-.1,4-.47,5.71-.29,1.31-.03,2.65-.4,3.96s-1.28,2.5-2.66,1.48c.47-.78.84-1.62,1.04-2.51.05-.21.17-.72.15-.91-.04-.32-.51-.39-.64-.1-.21,1.42-.73,2.85-1.7,3.92-1.35,1.48-2.43.54-3.15-.92-.14-.28-.26-.79-.39-1-.18-.28-.61-.14-.63.16s.38.98.5,1.28c-.53.66-1.35.69-1.96.1-1.52-1.46-.72-4.22-1.28-6.09-.51-1.72-2.3-4.67.46-5.48.84-.25,1.89.29,2.44.92-.32.44-.63.89-.83,1.41-.1.26-.36.93-.17,1.14Z"/>
  <path class="st0" d="M12.38,7.9h-.74s-.09.07-.15.04v-2.64c0-.08-.17-.53-.22-.63-.35-.68-1.18-1.11-1.94-1.04v-.42c1.34.04,2.57.97,2.92,2.27.04.15.13.49.13.63v1.8Z"/>
  <path class="st0" d="M13.06,6.88c.83-.17,1.85.15,2.37.82l-1.25.83c-.35-.22-.72-.42-1.12-.51v-1.14Z"/>
  <path class="st0" d="M10.81,7.56v.5c-.36.09-.67.29-.99.47-.35-.26-.67-.59-1.08-.76-.08-.12.51-.41.6-.44.49-.15,1.02.02,1.47.23Z"/>
</svg>