<?xml version="1.0" encoding="UTF-8"?>
<svg id="pomegranate" xmlns="http://www.w3.org/2000/svg" viewBox="0 0 24 24">
  <defs>
    <style>
      .cls-1 {
        stroke-width: 0px;
      }
    </style>
  </defs>
  <path class="cls-1" d="m19.73,9.48c-.99-1.64-2.42-2.54-3.54-3.02l.68-1.01c.3-.45.28-1.03-.05-1.46-.33-.43-.88-.6-1.4-.43l-1.2.4-1.34-1.34c-.47-.47-1.3-.47-1.78,0l-1.34,1.34-1.2-.4c-.52-.17-1.07,0-1.4.43-.33.43-.35,1.01-.05,1.46l.68,1.01c-1.11.48-2.54,1.38-3.54,3.02-2.17,3.58-.25,7.4-.02,7.82,1.44,2.7,4.48,4.44,7.75,4.44s6.3-1.74,7.75-4.44c.23-.42,2.15-4.24-.02-7.82Zm-1.3,7.12c-1.44,2.69-4.36,3.65-6.42,3.65s-4.98-.96-6.42-3.65c-.19-.35-1.76-3.47-.02-6.34.86-1.42,2.15-2.16,3.08-2.52.36-.14.62-.43.74-.79.11-.36.06-.75-.15-1.07l-.45-.67.67.22c.45.15.95.04,1.29-.3l1.27-1.27,1.27,1.27c.34.34.83.45,1.29.3l.67-.22-.45.67c-.21.32-.27.71-.15,1.07.11.36.38.65.74.79.93.36,2.22,1.1,3.08,2.52,1.74,2.87.17,5.99-.02,6.34Z"/>
</svg>