<?xml version="1.0" encoding="UTF-8"?>
<svg id="potato" xmlns="http://www.w3.org/2000/svg" viewBox="0 0 24 24">
  <defs>
    <style>
      .cls-1 {
        stroke-width: 0px;
      }
    </style>
  </defs>
  <path class="cls-1" d="m17.71,5.74c-.62-2.06-2.55-3.49-4.71-3.49s-4.09,1.44-4.71,3.5c-.57,1.35-1.22,2.66-1.94,3.87-.22.38-.43.71-.62,1.02-.67,1.08-1.19,1.93-1.47,3.24-.46,2.22.38,4.6,2.14,6.08,1.31,1.1,2.94,1.73,4.58,1.79.08,0,.16,0,.24,0,1.25,0,2.47-.33,3.63-.97,1.07-.6,1.94-1.51,2.52-2.63.66-1.27,1.12-2.62,1.38-4.02.64-3.54-.21-6.51-1.03-8.39Zm-.44,8.13c-.22,1.25-.64,2.46-1.23,3.6-.45.86-1.11,1.56-1.92,2.01-.98.55-2.03.82-3.08.78-1.31-.04-2.61-.55-3.67-1.44-1.34-1.13-1.98-2.94-1.62-4.66.22-1.02.64-1.7,1.27-2.72.2-.32.41-.66.64-1.05.76-1.29,1.44-2.66,2.04-4.09.01-.03.02-.05.03-.08.42-1.45,1.77-2.46,3.28-2.46s2.86,1.01,3.28,2.46c0,.03.02.06.03.09.75,1.69,1.52,4.37.95,7.56Z"/>
  <path class="cls-1" d="m14.02,16.25h0c-.41,0-.75.34-.75.75s.34.75.75.75.75-.34.75-.75-.33-.75-.75-.75Z"/>
  <path class="cls-1" d="m11.02,17.25h0c-.41,0-.75.34-.75.75s.34.75.75.75.75-.34.75-.75-.33-.75-.75-.75Z"/>
  <path class="cls-1" d="m12.02,14.25h0c-.41,0-.75.34-.75.75s.34.75.75.75.75-.34.75-.75-.33-.75-.75-.75Z"/>
  <path class="cls-1" d="m16.01,12.25c-.41,0-.75.34-.75.75s.34.75.75.75.75-.34.75-.75-.33-.75-.75-.75h0Z"/>
  <path class="cls-1" d="m14.02,8.25h0c-.41,0-.75.34-.75.75s.34.75.75.75.75-.34.75-.75-.33-.75-.75-.75Z"/>
  <path class="cls-1" d="m7.02,15.25h0c-.41,0-.75.34-.75.75s.34.75.75.75.75-.34.75-.75-.33-.75-.75-.75Z"/>
</svg>