<?xml version="1.0" encoding="UTF-8"?>
<svg id="pumpkin" xmlns="http://www.w3.org/2000/svg" viewBox="0 0 24 24">
  <defs>
    <style>
      .cls-1 {
        stroke-width: 0px;
      }
    </style>
  </defs>
  <path class="cls-1" d="m16,6.25c-.69,0-1.37.17-2.01.49-.29-.15-.59-.27-.91-.35.27-.98.11-2.03-.48-2.84-.89-1.2-2.31-1.3-2.58-1.3,0,0-.01,0-.02,0-.41,0-.74.32-.75.73-.01.41.32.76.73.77.09,0,.93.04,1.42.7.38.51.4,1.21.12,1.84-.53.06-1.03.22-1.51.46-.64-.32-1.31-.49-2.01-.49-3.17,0-5.75,3.48-5.75,7.75s2.58,7.75,5.75,7.75c.7,0,1.37-.17,2.01-.49.62.31,1.29.49,1.99.49s1.37-.18,1.99-.49c.64.32,1.31.49,2.01.49,3.17,0,5.75-3.48,5.75-7.75s-2.58-7.75-5.75-7.75ZM3.75,14c0-3.45,1.91-6.25,4.25-6.25.18,0,.36.04.54.08-1.39,1.42-2.29,3.65-2.29,6.17s.91,4.77,2.3,6.19c-.18.04-.37.06-.55.06-2.34,0-4.25-2.8-4.25-6.25Zm6.69,5.81s0,0,0,0c-1.57-.92-2.68-3.17-2.68-5.8,0-3.45,1.91-6.25,4.25-6.25s4.25,2.8,4.25,6.25-1.91,6.25-4.25,6.25c-.55,0-1.08-.16-1.56-.44Zm5.56.44c-.18,0-.36-.04-.54-.08,1.39-1.42,2.29-3.65,2.29-6.17s-.9-4.76-2.29-6.17c.18-.03.36-.08.54-.08,2.34,0,4.25,2.8,4.25,6.25s-1.91,6.25-4.25,6.25Z"/>
</svg>