<?xml version="1.0" encoding="UTF-8"?>
<svg id="Layer_3" xmlns="http://www.w3.org/2000/svg" version="1.1" viewBox="0 0 24 24">
  <!-- Generator: Adobe Illustrator 29.6.1, SVG Export Plug-In . SVG Version: 2.1.1 Build 9)  -->
  <defs>
    <style>
      .st0 {
        fill: #fff;
      }
    </style>
  </defs>
  <path d="M14.39,5.22c.36-.38.71-.76,1.21-.98,2.22-.97,4.59.93,4.05,3.3-.06.27-.19.52-.25.79,1.57.99,1.54,3.25-.12,4.12.43,1.02.08,2.04-.73,2.73-.29.25-.65.43-.95.68-1.19.96-2.14,1.99-2.94,3.29-.16.27-.54,1.12-.69,1.26-.08.07-.25.12-.36.14-1.02.11-2.26-.08-3.31-.02-.1-.04-.2-.07-.28-.15-.18-.19-.49-.94-.67-1.23-.7-1.13-1.59-2.18-2.62-3.03-.66-.54-1.63-1.01-1.98-1.81-.26-.59-.3-1.27-.03-1.86-1.66-.87-1.69-3.12-.12-4.12-.41-1.01-.48-1.97.09-2.93,1.08-1.83,3.68-1.86,4.89-.17,1.02-2.34,3.86-2.42,4.81,0ZM11.48,19.54v-5.5c-.26-.38-1.44-1.25-1.55-1.6-.1-.32.02-.63.37-.69.48-.09.82.58,1.18.8v-2.01c-.25-.37-1.44-1.26-1.55-1.6-.08-.25-.04-.43.18-.59.56-.4.95.51,1.37.76v-.96c0-.34.56-.56.85-.32.04.03.2.3.2.32v.96c.42-.25.81-1.16,1.37-.76.21.15.26.33.18.59-.11.34-1.29,1.23-1.55,1.6v2.01c.31-.19.65-.78,1.03-.82.41-.04.64.33.52.7-.11.34-1.29,1.23-1.55,1.6v5.5l.59-.03c.08-.63.09-1.27.19-1.9.23-1.47.81-3.05,1.55-4.34.22-.39,1.08-1.47,1.15-1.76.1-.41.02-.85-.29-1.15-.11-.1-.29-.13-.38-.29-.33-.58.36-.79.57-1.22.43-.87-.15-1.95-1.13-2-.29-.02-.6.16-.87,0s-.28-.88-.41-1.23c-.6-1.59-2.3-1.61-2.93-.02-.15.37-.12.63-.2.96-.13.54-.81.25-1.17.28-1.04.1-1.57,1.34-.97,2.18.18.25.51.36.53.7.02.49-.26.43-.5.68-.28.29-.33.73-.24,1.11.07.29.93,1.38,1.15,1.76.74,1.28,1.32,2.88,1.55,4.34.1.63.11,1.27.19,1.9l.59.03ZM8.8,5.91c-1.2-2-4.25-.48-3.37,1.71.14.34.57.67.49,1.03-.08.41-.57.39-.87.59-.81.54-.81,1.72,0,2.25.33.22.72.13.84.56.1.33-.14.46-.25.75-.51,1.39,1.13,1.98,1.99,2.75.43.38.82.86,1.25,1.25l.78.99c-.18-1.58-.82-3.14-1.66-4.48-.31-.49-.84-1.02-.99-1.57-.21-.76.03-1.38.44-2.01-1.07-1.4-.35-3.42,1.34-3.82ZM14.39,17.8c.52-.8,1.24-1.58,1.95-2.21.87-.77,2.54-1.38,2.02-2.78-.11-.28-.34-.41-.25-.75.12-.43.51-.35.84-.56.81-.53.81-1.72,0-2.25-.31-.21-.82-.19-.88-.64-.04-.32.54-.84.62-1.34.31-2.15-2.29-3.14-3.48-1.38,1.69.47,2.41,2.4,1.34,3.84.27.45.55.95.52,1.51-.04.93-1.07,1.99-1.53,2.85-.5.94-1.12,2.46-1.21,3.51,0,.06-.04.22.06.2Z"/>
  <path class="st0" d="M11.48,19.54l-.59-.03c-.08-.63-.09-1.27-.19-1.9-.23-1.46-.81-3.06-1.55-4.34-.22-.39-1.08-1.47-1.15-1.76-.09-.38-.03-.82.24-1.11.24-.25.52-.19.5-.68-.02-.34-.35-.45-.53-.7-.6-.84-.08-2.08.97-2.18.37-.03,1.05.26,1.17-.28.08-.34.06-.59.2-.96.63-1.6,2.33-1.58,2.93.02.13.34.13,1.07.41,1.23s.59-.02.87,0c.98.05,1.56,1.13,1.13,2-.21.43-.9.65-.57,1.22.09.15.28.19.38.29.31.3.38.73.29,1.15-.07.29-.93,1.38-1.15,1.76-.74,1.28-1.32,2.87-1.55,4.34-.1.63-.11,1.27-.19,1.9l-.59.03v-5.5c.25-.37,1.44-1.26,1.55-1.6.12-.37-.11-.74-.52-.7-.37.03-.72.63-1.03.82v-2.01c.25-.37,1.44-1.26,1.55-1.6.08-.25.04-.43-.18-.59-.56-.4-.95.51-1.37.76v-.96s-.16-.29-.2-.32c-.29-.24-.85-.01-.85.32v.96c-.42-.25-.81-1.16-1.37-.76-.21.15-.26.33-.18.59.11.34,1.29,1.23,1.55,1.6v2.01c-.36-.23-.7-.9-1.18-.8-.34.07-.47.37-.37.69.11.34,1.29,1.22,1.55,1.6v5.5Z"/>
  <path class="st0" d="M14.39,17.8c-.1.02-.06-.14-.06-.2.09-1.05.71-2.57,1.21-3.51.45-.85,1.48-1.92,1.53-2.85.03-.56-.25-1.06-.52-1.51,1.07-1.44.35-3.37-1.34-3.84,1.19-1.76,3.79-.76,3.48,1.38-.07.5-.66,1.02-.62,1.34.06.45.57.43.88.64.81.54.81,1.72,0,2.25-.33.22-.72.13-.84.56-.1.33.14.46.25.75.52,1.39-1.15,2-2.02,2.78-.71.63-1.43,1.42-1.95,2.21Z"/>
  <path class="st0" d="M8.8,5.91c-1.7.4-2.41,2.42-1.34,3.82-.41.63-.64,1.25-.44,2.01.15.55.68,1.09.99,1.57.84,1.34,1.49,2.9,1.66,4.48l-.78-.99c-.43-.39-.82-.87-1.25-1.25-.86-.76-2.51-1.36-1.99-2.75.11-.28.34-.41.25-.75-.12-.43-.51-.35-.84-.56-.81-.53-.81-1.72,0-2.25.3-.2.79-.18.87-.59.07-.36-.36-.69-.49-1.03-.88-2.19,2.17-3.71,3.37-1.71Z"/>
</svg>