<svg viewBox="0 0 64 64" xmlns="http://www.w3.org/2000/svg" fill="#000">
<path d="M35.9 10.7c2.7-2.7 6.8-3.6 10.3-2.2 1 .4 1.4 1.6.9 2.6-.9 1.9-2.7 3.5-5.2 4.5 4.6.1 8.3 1.2 10.7 3.6 2.4 2.4 3.5 6.3 3 11.7-.5 5.2-2.5 11.6-6.5 18-7.4 12-16.6 13.8-26.9 6.6C11.9 48.2 8.4 38 10.6 28.9c1.4-5.6 4.7-9.6 9.6-11.5 3.7-1.5 8.6-1.7 14.4-.5-1.5-2.2-1.5-4.6 1.3-6.2zM24 32a2 2 0 1 0 0 4 2 2 0 0 0 0-4zm10 6a2 2 0 1 0 0 4 2 2 0 0 0 0-4zm-8 10a2 2 0 1 0 0 4 2 2 0 0 0 0-4zm14-16a2 2 0 1 0 0 4 2 2 0 0 0 0-4z"/>
</svg>