<svg xmlns="http://www.w3.org/2000/svg" viewBox="0 0 64 64">
  <g fill="none" stroke="#22d500" stroke-width="3" stroke-linecap="round" stroke-linejoin="round">
    <path d="M32 58c12-6 22-18 16-30-2-4-7-8-12-8-2 0-4 1-4 1s-2-1-4-1c-5 0-10 4-12 8-6 12 4 24 16 30z"/>
    <path d="M32 18c0-6 4-10 8-10 0 4-4 8-8 8-4 0-8-4-8-8 4 0 8 4 8 10z"/>
    <circle cx="24" cy="32" r="1.5"/><circle cx="40" cy="32" r="1.5"/>
    <circle cx="28" cy="38" r="1.5"/><circle cx="36" cy="38" r="1.5"/>
    <circle cx="24" cy="44" r="1.5"/><circle cx="40" cy="44" r="1.5"/>
  </g>
</svg>
