<?xml version="1.0" encoding="UTF-8"?>
<svg id="sweet_potato" data-name="sweet potato" xmlns="http://www.w3.org/2000/svg" viewBox="0 0 24 24">
  <defs>
    <style>
      .cls-1 {
        stroke-width: 0px;
      }
    </style>
  </defs>
  <path class="cls-1" d="m21.25,10.6c-.95-1.19-2.65-2.79-5.28-3.7-3.59-1.24-6.76-.41-7.95,0-2.63.91-4.32,2.51-5.28,3.7-.66.82-.66,1.97,0,2.79.95,1.19,2.64,2.79,5.28,3.7.73.25,2.18.65,4.02.65,1.18,0,2.53-.17,3.94-.65,2.63-.91,4.32-2.51,5.28-3.7.66-.82.66-1.97,0-2.79Zm-1.17,1.85c-.83,1.03-2.3,2.43-4.6,3.22-1.35.47-2.63.59-3.74.56v-2.23c0-.41-.34-.75-.75-.75s-.75.34-.75.75v2.1c-.76-.12-1.36-.3-1.74-.43-2.3-.79-3.77-2.19-4.6-3.22t0,0c-.22-.27-.22-.64,0-.91.8-.99,2.19-2.31,4.34-3.12v1.57c0,.41.34.75.75.75s.75-.34.75-.75v-2s0,0,0,0c.63-.13,1.41-.24,2.29-.24.97,0,2.07.14,3.22.5v2.74c0,.41.34.75.75.75s.75-.34.75-.75v-2.13c1.58.8,2.67,1.85,3.34,2.68.22.27.22.64,0,.91Z"/>
</svg>