<?xml version="1.0" encoding="UTF-8"?>
<svg id="watermelon" xmlns="http://www.w3.org/2000/svg" viewBox="0 0 24 24">
  <defs>
    <style>
      .cls-1 {
        stroke-width: 0px;
      }
    </style>
  </defs>
  <path class="cls-1" d="m12.75,6.29v-.51c.1,0,.19-.01.29-.03.95-.02,1.71-.79,1.71-1.75s-.79-1.75-1.75-1.75c-.87,0-1.58.64-1.72,1.46-.38-.42-.56-.93-.57-.96-.14-.39-.57-.6-.95-.46-.39.14-.6.56-.46.96.11.3.65,1.69,1.96,2.29v.75c-3.92.38-7,3.69-7,7.71,0,4.27,3.48,7.75,7.75,7.75s7.75-3.48,7.75-7.75c0-4.02-3.08-7.33-7-7.71Zm.25-2.54c.14,0,.25.11.25.25,0,.28-.5.28-.5,0,0-.14.11-.25.25-.25Zm-7.25,10.25c0-2.29,1.24-4.29,3.08-5.38-.38,1.77-.58,3.57-.58,5.38s.2,3.61.58,5.37c-1.84-1.09-3.08-3.09-3.08-5.37Zm4.78,6.07c-.51-1.98-.78-4.02-.78-6.07s.26-4.08.77-6.07c.47-.12.97-.18,1.48-.18s1,.07,1.47.18c.51,1.98.78,4.02.78,6.07s-.26,4.09-.78,6.07c-.47.12-.97.18-1.47.18s-1-.07-1.47-.18Zm4.64-.69c.38-1.77.58-3.57.58-5.38s-.2-3.61-.58-5.38c1.84,1.09,3.08,3.09,3.08,5.38s-1.24,4.29-3.08,5.38Z"/>
</svg>