<?xml version="1.0" encoding="UTF-8"?>
<svg id="Layer_3" xmlns="http://www.w3.org/2000/svg" version="1.1" viewBox="0 0 24 24">
  <!-- Generator: Adobe Illustrator 29.6.1, SVG Export Plug-In . SVG Version: 2.1.1 Build 9)  -->
  <defs>
    <style>
      .st0 {
        fill: #fff;
      }
    </style>
  </defs>
  <path d="M18,4.9c.1-.02.19-.02.29,0,.09.02,1.16.81,1.24.9.18.21.11.37,0,.59-.3.64-.88,1.29-1.2,1.94l.09.83c0,1.75-1.54,2.88-2.58,4.1-.96,1.12-1.88,2.28-2.74,3.49-.73,1.03-1.11,1.98-2.28,2.64-3.8,2.16-8.1-1.98-6.06-5.85.69-1.31,1.96-1.87,3.11-2.69,1.42-1.02,2.75-2.16,4.06-3.31s2.06-2.01,4.04-1.66l2.01-.97ZM17.91,7.34l.68-1.12-.5-.34-1.07.55c.36.25.61.59.89.92ZM15.5,6.77c-.76-.19-1.51.12-2.09.6-1.18.97-2.25,2.09-3.48,3.06-1.08.86-2.23,1.53-3.32,2.33-1.28.95-1.75,2.53-1.26,4.05.25-.31.39-.7.61-1.04,1.12-1.78,3.37-3.35,4.94-4.79s2.93-2.97,4.6-4.21ZM16.28,7.46c-.36.05-1.06.65-1.35.9-1.24,1.11-2.42,2.38-3.66,3.51-1.36,1.23-4.9,3.84-5.12,5.65-.08.68.2.68.78.52,1.88-.53,4.09-3.59,5.41-5.05,1.2-1.32,2.77-2.7,3.84-4.05.19-.24.57-.74.58-1.05s-.2-.47-.49-.43ZM17.49,8.7c-.14-.03-.09.04-.13.1-1.06,1.6-2.86,3.15-4.19,4.6-.95,1.04-1.84,2.2-2.8,3.22-.82.88-1.81,1.7-2.93,2.17-.08.11.79.25.86.26,2.4.19,3.02-1.39,4.17-3,.9-1.26,1.88-2.47,2.89-3.65.54-.62,2.12-2.05,2.12-2.85v-.86Z"/>
  <path class="st0" d="M16.28,7.46c.29-.04.49.14.49.43s-.39.8-.58,1.05c-1.07,1.36-2.65,2.74-3.84,4.05-1.33,1.46-3.53,4.52-5.41,5.05-.58.16-.86.16-.78-.52.22-1.82,3.76-4.42,5.12-5.65,1.24-1.13,2.42-2.4,3.66-3.51.28-.25.99-.85,1.35-.9Z"/>
  <path class="st0" d="M15.5,6.77c-1.67,1.24-3.07,2.81-4.6,4.21s-3.82,3.01-4.94,4.79c-.21.34-.36.73-.61,1.04-.49-1.52-.02-3.1,1.26-4.05,1.08-.8,2.23-1.48,3.32-2.33,1.23-.97,2.3-2.09,3.48-3.06.58-.48,1.33-.79,2.09-.6Z"/>
  <path class="st0" d="M17.49,8.7v.86c0,.8-1.58,2.23-2.12,2.85-1.01,1.17-1.99,2.38-2.89,3.65-1.15,1.61-1.76,3.19-4.17,3-.07,0-.95-.15-.86-.26,1.12-.47,2.11-1.29,2.93-2.17.96-1.02,1.84-2.18,2.8-3.22,1.32-1.45,3.13-3,4.19-4.6.04-.06-.01-.13.13-.1Z"/>
  <path class="st0" d="M17.91,7.34c-.28-.33-.53-.67-.89-.92l1.07-.55.5.34-.68,1.12Z"/>
</svg>