<?xml version="1.0" encoding="UTF-8"?>
<svg id="apricot" xmlns="http://www.w3.org/2000/svg" viewBox="0 0 24 24">
  <defs>
    <style>
      .cls-1 {
        stroke-width: 0px;
      }
    </style>
  </defs>
  <path class="cls-1" d="m19.97,10.9c-1.05-2.28-2.91-3.44-4.58-4.03.96-.89,1.49-2.36,1.33-3.94-.03-.36-.32-.64-.67-.67-2.01-.21-3.82.72-4.5,2.23,0,0,0-.01-.02-.02-.38-.38-1.19-1.04-2.42-1.21-.41-.07-.79.23-.85.64s.23.79.64.85c.8.12,1.33.54,1.58.79.26.26.42.53.54.79-1.78.2-5.35,1.05-6.97,4.58-1.11,2.43-1.26,5.97.93,8.4,1.65,1.84,4.3,2.58,6.97,1.97.66.26,1.34.38,2.02.38,1.99,0,3.91-1.02,5.08-2.36,2.17-2.47,2.03-6,.93-8.39Zm-7.1-5.72c.31-.81,1.26-1.37,2.38-1.45-.08,1.13-.63,2.08-1.44,2.4-.2.08-.4.11-.67.12-.11,0-.23-.01-.35-.03-.05-.31-.05-.68.08-1.03Zm5.05,13.12c-1.23,1.4-3.6,2.4-5.59,1.5,0,0,0,0-.01,0-2.27-1.04-2.56-3.84-2.56-3.87-.17-1.93.86-3.86,2.64-4.92.36-.21.47-.67.26-1.03s-.67-.47-1.03-.26c-2.27,1.35-3.59,3.84-3.37,6.34.01.12.22,2.29,1.76,3.91-1.54-.03-2.98-.62-3.92-1.68-1.98-2.2-1.36-5.29-.68-6.77,1.69-3.67,6.1-3.78,6.6-3.78s4.91.11,6.6,3.78c.9,1.96,1.03,4.81-.69,6.78Z"/>
  <path class="cls-1" d="m16.02,15.25h0c-.41,0-.75.34-.75.75s.34.75.75.75.75-.34.75-.75-.33-.75-.75-.75Z"/>
  <path class="cls-1" d="m14.02,17.25h0c-.41,0-.75.34-.75.75s.34.75.75.75.75-.34.75-.75-.33-.75-.75-.75Z"/>
</svg>