<?xml version="1.0" encoding="UTF-8"?>
<svg id="asparagus" xmlns="http://www.w3.org/2000/svg" viewBox="0 0 24 24">
  <defs>
    <style>
      .cls-1 {
        stroke-width: 0px;
      }
    </style>
  </defs>
  <path class="cls-1" d="m17.25,13.82c-.24-.48-.68-.84-1.2-.98-.52-.14-1.08-.05-1.53.25l-.76.51v-3.98c0-.1.05-.18.14-.22l2.45-1.22c.92-.46,1.3-1.58.84-2.51-.22-.45-.61-.78-1.08-.94-.47-.16-.98-.12-1.43.1l-.91.46v-1.29c0-.96-.79-1.75-1.75-1.75s-1.75.79-1.75,1.75v1.29l-.91-.46c-.45-.22-.95-.26-1.43-.1-.47.16-.86.49-1.08.94-.46.92-.09,2.04.84,2.51l2.45,1.22c.08.04.14.13.14.22v10.38c0,.96.79,1.75,1.75,1.75s1.75-.79,1.75-1.75v-1.62l2.94-2.21c.73-.55.96-1.54.56-2.35Zm-5.5-7.82v-2c0-.28.5-.28.5,0v2s0,.02,0,.03l-.26.13-.26-.13s0-.02,0-.03Zm4.04,8.97l-3.24,2.43c-.19.14-.3.36-.3.6v2c0,.28-.5.28-.5,0v-10.38c0-.67-.37-1.27-.97-1.57l-2.45-1.22c-.18-.09-.26-.31-.16-.49.06-.12.16-.17.21-.18.03,0,.07-.02.12-.02s.1,0,.16.04l3,1.5c.21.11.46.11.67,0l3-1.5c.12-.06.23-.04.28-.02.05.02.15.07.21.18.09.18.02.4-.16.49l-2.45,1.22c-.6.3-.97.9-.97,1.57v5.38c0,.28.15.53.4.66.24.13.54.12.77-.04l1.93-1.29c.13-.08.25-.07.31-.05.06.02.18.07.25.2.08.17.04.37-.11.48Z"/>
</svg>