<?xml version="1.0" encoding="UTF-8"?>
<svg id="ginko" xmlns="http://www.w3.org/2000/svg" viewBox="0 0 24 24">
  <defs>
    <style>
      .cls-1 {
        stroke-width: 0px;
      }
    </style>
  </defs>
  <path class="cls-1" d="m18.5,12.25c-.81,0-1.52.44-1.92,1.09-.84.24-2.17.83-3.19,2.22-.3.41-.51.82-.68,1.22-.35-1.21-.28-2.29-.11-3.09.59-.13,1.13-.44,1.55-.91.39-.43.83-.83,1.29-1.18,1.02-.77,2.18-1.32,3.46-1.63,1.08-.27,1.84-1.25,1.84-2.38s-.79-2.13-1.92-2.4c-.51-.12-.95-.36-1.31-.71-.22-.22-.41-.48-.54-.78-.41-.88-1.29-1.44-2.25-1.44-1.37,0-2.48,1.11-2.48,2.48v2.27c0,.28-.5.28-.5,0v-2.27c0-1.37-1.11-2.48-2.48-2.48-.96,0-1.84.57-2.25,1.44-.14.29-.32.55-.54.78-.35.35-.79.59-1.31.71-1.13.27-1.92,1.26-1.92,2.4s.76,2.11,1.84,2.39c1.27.32,2.44.87,3.46,1.63.46.35.9.75,1.29,1.18.35.38.78.65,1.26.81-.16.9-.21,2.04.1,3.3-.62-.28-1.31-.52-2.09-.63-.58-.09-1.17-.08-1.76-.03-.41-.59-1.08-.97-1.85-.97-1.24,0-2.25,1.01-2.25,2.25s1.01,2.25,2.25,2.25c1.17,0,2.13-.91,2.23-2.05.39-.02.78-.01,1.16.04,1.54.23,2.69.99,3.43,1.65.76,1.12,1.67,1.84,2.27,2.23.13.08.27.12.41.12.25,0,.49-.12.63-.34.23-.35.13-.81-.22-1.04-.36-.24-1.04-.75-1.65-1.55.03-.57.19-1.49.84-2.38.52-.72,1.17-1.15,1.72-1.4.24.98,1.12,1.71,2.18,1.71,1.24,0,2.25-1.01,2.25-2.25s-1.01-2.25-2.25-2.25Zm-13,6c-.41,0-.75-.34-.75-.75s.34-.75.75-.75.75.34.75.75-.34.75-.75.75Zm3.95-7.85c-1.18-.89-2.52-1.52-4-1.89-.42-.1-.71-.49-.71-.93s.31-.84.76-.94c.79-.19,1.46-.56,2.01-1.11.35-.35.63-.75.85-1.21.17-.36.51-.58.89-.58.54,0,.98.44.98.98v2.27c0,.96.79,1.75,1.75,1.75s1.75-.79,1.75-1.75v-2.27c0-.54.44-.98.98-.98.38,0,.73.22.89.58.21.45.5.86.85,1.21.55.55,1.23.92,2.01,1.11.45.11.76.5.76.94s-.29.83-.71.93c-1.47.37-2.82,1-4,1.89-.54.4-1.04.86-1.5,1.37-.57.62-1.53.62-2.1,0-.46-.5-.96-.96-1.5-1.37Zm9.05,4.85c-.41,0-.75-.34-.75-.75s.34-.75.75-.75.75.34.75.75-.34.75-.75.75Z"/>
</svg>