<?xml version="1.0" encoding="UTF-8"?>
<svg id="leek" xmlns="http://www.w3.org/2000/svg" viewBox="0 0 24 24">
  <defs>
    <style>
      .cls-1 {
        stroke-width: 0px;
      }
    </style>
  </defs>
  <path class="cls-1" d="m19.69,5.71c-.12-.28-.39-.46-.69-.46h-3c-.16,0-.31.05-.44.14-.9.65-1.72,1.38-2.46,2.17-1.13-1.99-2.72-3.77-4.66-5.17-.13-.09-.28-.14-.44-.14h-3c-.3,0-.57.18-.69.46s-.06.6.15.81c1.65,1.71,2.94,3.65,3.85,5.77.64,1.51.89,3.16.7,4.79l-.43,3.85c-.11.99.22,1.98.89,2.71.65.7,1.57,1.1,2.52,1.1.04,0,.08,0,.11,0,.93-.03,1.79-.45,2.41-1.17.67-.77.98-1.79.87-2.8l-.35-3.19c.12-.79.34-1.56.65-2.29.91-2.13,2.2-4.07,3.85-5.77.21-.22.27-.54.15-.81Zm-6.3,13.89c-.35.4-.82.63-1.33.65-.57.01-1.11-.21-1.49-.62-.38-.41-.57-.97-.5-1.53l.43-3.85c.21-1.88-.07-3.8-.81-5.55-.76-1.78-1.77-3.44-3.02-4.96h1.08c2,1.49,3.58,3.41,4.56,5.56.55,1.2.9,2.48,1.05,3.8l.54,4.83c.07.6-.12,1.2-.51,1.66Zm1.15-8.39c-.18-.75-.42-1.48-.72-2.19.72-.83,1.52-1.6,2.43-2.27h1.08c-1.13,1.37-2.05,2.87-2.78,4.46Z"/>
</svg>