<?xml version="1.0" encoding="UTF-8"?>
<svg id="mangosteen" xmlns="http://www.w3.org/2000/svg" viewBox="0 0 24 24">
  <defs>
    <style>
      .cls-1 {
        stroke-width: 0px;
      }
    </style>
  </defs>
  <path class="cls-1" d="m19.85,9.16c.01-.14.03-.28.03-.43,0-1.19-.53-2.37-1.42-3.24-.39-.38-.95-.58-1.52-.55-.71.04-1.72.26-2.61,1.07-.38-.24-.84-.45-1.38-.57.07-.5.04-1.13-.28-1.77-.38-.75-.99-1.16-1.32-1.33-.37-.19-.82-.05-1.01.32-.19.37-.05.82.32,1.01.17.09.49.29.68.67.19.38.17.76.11,1.03-.46.07-1.11.23-1.77.63-.38-.34-1.39-1.09-2.81-1.09h0c-.49,0-.97.2-1.33.55-.91.88-1.44,2.07-1.45,3.28,0,.17.02.33.04.5-.56,1.18-.86,2.44-.86,3.76,0,4.83,3.93,8.75,8.75,8.75s8.75-3.92,8.75-8.75c0-1.33-.32-2.65-.9-3.84Zm-2.83-2.73c.16-.02.31.04.4.13.61.59.96,1.39.97,2.18,0,.5-.14.95-.39,1.2-.43.43-1.54.58-2.58.02.22-.59.34-1.23.33-1.88,0-.36-.12-.71-.31-1.03.54-.44,1.14-.59,1.58-.61Zm-7.27,1.64c0-.14.06-.28.15-.37h0c.85-.85,1.98-.88,2.1-.88.93,0,1.6.44,2.01.81.15.14.24.3.24.46.01.96-.34,1.87-.96,2.5-.4.41-.88.65-1.29.65s-.89-.25-1.29-.66c-.63-.64-.98-1.55-.96-2.52Zm-3.19-1.53c.08-.08.2-.12.3-.13.79,0,1.39.38,1.69.61-.18.31-.29.66-.3,1.03-.01.67.11,1.33.34,1.94-1.01.55-2.16.46-2.63,0-.25-.25-.4-.71-.39-1.22,0-.8.37-1.61.99-2.21Zm5.44,13.71c-4,0-7.25-3.25-7.25-7.25,0-.65.09-1.27.26-1.88.55.5,1.32.75,2.14.75.73,0,1.5-.21,2.2-.6.1.12.18.26.29.37.69.7,1.55,1.11,2.36,1.11s1.66-.4,2.35-1.1c.12-.12.21-.26.31-.39.71.4,1.45.57,2.13.57.88,0,1.66-.29,2.18-.77.17.63.27,1.28.27,1.93,0,4-3.25,7.25-7.25,7.25Z"/>
</svg>