<?xml version="1.0" encoding="UTF-8"?>
<svg id="orange" xmlns="http://www.w3.org/2000/svg" viewBox="0 0 24 24">
  <defs>
    <style>
      .cls-1 {
        stroke-width: 0px;
      }
    </style>
  </defs>
  <path class="cls-1" d="m15.25,6.98c1.04-.88,1.63-2.4,1.47-4.05-.03-.36-.32-.64-.67-.67-2.01-.19-3.82.72-4.5,2.23,0,0,0-.01-.01-.02-.38-.38-1.19-1.04-2.42-1.21-.41-.06-.79.23-.85.64-.06.41.23.79.64.85.8.11,1.33.54,1.58.79.26.26.43.53.55.79-3.81.49-6.77,3.74-6.77,7.68,0,4.27,3.48,7.75,7.75,7.75s7.75-3.48,7.75-7.75c0-3.11-1.85-5.79-4.5-7.02Zm-2.39-1.79c.31-.81,1.26-1.37,2.38-1.45-.08,1.13-.63,2.08-1.44,2.4-.21.08-.4.12-.67.11-.11,0-.23-.01-.35-.03-.05-.31-.05-.68.08-1.03Zm-.87,15.06c-3.45,0-6.25-2.8-6.25-6.25s2.8-6.25,6.25-6.25,6.25,2.8,6.25,6.25-2.8,6.25-6.25,6.25Z"/>
</svg>