<?xml version="1.0" encoding="UTF-8"?>
<svg id="pineapple" xmlns="http://www.w3.org/2000/svg" viewBox="0 0 24 24">
  <defs>
    <style>
      .cls-1 {
        stroke-width: 0px;
      }
    </style>
  </defs>
  <path class="cls-1" d="m15.43,6.8c.81-.68,1.32-1.71,1.32-2.84,0-.47-.24-.89-.64-1.14-.4-.25-.89-.27-1.3-.06l-.67.34c-.09.04-.19.04-.27,0l-1.06-.53c-.5-.25-1.11-.25-1.61,0l-1.06.53c-.09.04-.19.04-.27,0l-.67-.34c-.42-.21-.91-.19-1.3.06-.4.25-.64.67-.64,1.14,0,1.13.51,2.16,1.32,2.84-1.96.92-3.32,2.9-3.32,5.2v4c0,3.17,2.58,5.75,5.75,5.75h2c3.17,0,5.75-2.58,5.75-5.75v-4c0-2.3-1.36-4.29-3.32-5.2Zm-6.23-2.36c.51.25,1.11.25,1.61,0h0l1.06-.53c.09-.04.19-.04.27,0l1.06.53c.5.25,1.11.25,1.61,0l.43-.21c-.11.92-.77,1.68-1.64,1.86-1.04.22-2.14.22-3.18,0-.88-.18-1.54-.95-1.64-1.86l.43.21Zm8.06,11.56c0,2.34-1.91,4.25-4.25,4.25h-2c-2.34,0-4.25-1.91-4.25-4.25v-4c0-2.34,1.91-4.25,4.25-4.25h2c2.34,0,4.25,1.91,4.25,4.25v4Z"/>
  <path class="cls-1" d="m8.47,14.47c-.29.29-.29.77,0,1.06.29.29.77.29,1.06,0,.25-.25.69-.25.94,0,.15.15.34.22.53.22s.38-.07.53-.22c.29-.29.29-.77,0-1.06-.82-.82-2.24-.82-3.06,0Z"/>
  <path class="cls-1" d="m9.53,11.53c.25-.25.69-.25.94,0,.15.15.34.22.53.22s.38-.07.53-.22c.29-.29.29-.77,0-1.06-.84-.84-2.22-.84-3.06,0-.29.29-.29.77,0,1.06s.77.29,1.06,0Z"/>
  <path class="cls-1" d="m12.47,16.47c-.29.29-.29.77,0,1.06s.77.29,1.06,0c.26-.26.68-.26.94,0,.15.15.34.22.53.22s.38-.07.53-.22c.29-.29.29-.77,0-1.06-.84-.84-2.22-.84-3.06,0Z"/>
  <path class="cls-1" d="m12.47,12.47c-.29.29-.29.77,0,1.06.29.29.77.29,1.06,0,.26-.26.68-.26.94,0,.15.15.34.22.53.22s.38-.07.53-.22c.29-.29.29-.77,0-1.06-.84-.84-2.22-.84-3.06,0Z"/>
</svg>