<?xml version="1.0" encoding="UTF-8"?>
<svg id="rose_apple" data-name="rose apple" xmlns="http://www.w3.org/2000/svg" viewBox="0 0 24 24">
  <defs>
    <style>
      .cls-1 {
        stroke-width: 0px;
      }
    </style>
  </defs>
  <path class="cls-1" d="m20.5,14.42c-.16-.43-.34-.85-.54-1.26-.55-1.11-1.11-1.79-1.82-2.66-.39-.48-.84-1.02-1.36-1.74-.28-.38-.62-.86-1-1.44-.66-1.02-1.67-1.71-2.8-1.97.07-.52.02-1.14-.32-1.74-.55-.95-1.63-1.49-2.73-1.37-.41.04-.71.41-.67.82.04.41.42.72.82.67.52-.05,1.02.19,1.27.63.19.33.17.67.11.91-1.3.16-2.49.9-3.23,2.05-.38.58-.72,1.06-1,1.44-.53.72-.97,1.26-1.36,1.74-.71.87-1.27,1.55-1.82,2.66-.2.4-.38.83-.54,1.26-.71,1.97.09,4.15,1.91,5.1,1.41.72,2.79.61,3.7.4.21-.05.33.18.35.22.48.98,1.47,1.61,2.53,1.61s2.05-.63,2.53-1.6c.02-.04.14-.27.35-.22.91.22,2.29.32,3.75-.42,1.78-.93,2.58-3.11,1.87-5.08Zm-2.59,3.77c-1.01.51-2.01.43-2.67.27-.82-.2-1.65.21-2.04,1.02-.23.46-.69.77-1.19.77s-.96-.3-1.19-.77c-.33-.67-.96-1.07-1.63-1.07-.14,0-.27.02-.41.05-.66.16-1.67.24-2.71-.29-1.1-.57-1.6-2-1.15-3.24.14-.38.3-.75.47-1.1.48-.96.97-1.55,1.64-2.38.41-.49.87-1.06,1.41-1.8.29-.4.65-.9,1.04-1.51.57-.88,1.51-1.4,2.51-1.4s1.94.52,2.51,1.4c.39.6.75,1.11,1.04,1.51.55.75,1.01,1.31,1.41,1.8.67.82,1.16,1.42,1.64,2.38.18.35.33.72.47,1.1.45,1.24-.05,2.67-1.18,3.26Z"/>
</svg>