<?xml version="1.0" encoding="UTF-8"?>
<svg id="strawberry" xmlns="http://www.w3.org/2000/svg" viewBox="0 0 24 24">
  <defs>
    <style>
      .cls-1 {
        stroke-width: 0px;
      }
    </style>
  </defs>
  <path class="cls-1" d="m18.81,9.02c-.77-1.2-1.91-2.02-3.23-2.36.72-.68,1.17-1.65,1.17-2.71,0-.47-.24-.89-.64-1.14-.4-.25-.89-.27-1.3-.06l-.67.34c-.09.04-.19.04-.27,0l-1.06-.53c-.5-.25-1.11-.25-1.61,0l-1.06.53c-.09.04-.19.04-.27,0l-.67-.34c-.42-.21-.91-.19-1.3.06-.4.25-.64.67-.64,1.14,0,1.05.45,2.02,1.16,2.7-1.32.37-2.44,1.2-3.21,2.39-.89,1.37-1.17,3.08-.78,4.69h0c.55,2.24,1.57,4.13,3.03,5.63.65.67,1.4,1.25,2.2,1.74.72.43,1.53.65,2.34.65s1.62-.22,2.34-.65c.81-.48,1.55-1.07,2.2-1.74,1.47-1.5,2.49-3.39,3.03-5.63.39-1.61.11-3.33-.77-4.71Zm-9.61-4.59c.51.25,1.11.25,1.61,0h0l1.06-.53c.09-.04.19-.04.27,0l1.06.53c.5.25,1.11.25,1.61,0l.43-.21c-.11.92-.77,1.68-1.64,1.86-1.05.22-2.14.22-3.18,0-.88-.18-1.54-.95-1.64-1.86l.43.21Zm8.92,8.94c-.48,1.97-1.37,3.63-2.65,4.94-.56.58-1.2,1.08-1.9,1.5-.97.58-2.17.58-3.14,0-.7-.42-1.34-.92-1.9-1.5-1.27-1.3-2.16-2.96-2.65-4.93-.29-1.21-.08-2.49.58-3.52.64-.98,1.6-1.64,2.72-1.85,1.91-.36,3.88-.35,5.8.03,1.04.21,1.95.84,2.56,1.79.66,1.04.87,2.33.58,3.55Z"/>
  <path class="cls-1" d="m12,10.25c-.41,0-.75.34-.75.75v1c0,.41.34.75.75.75s.75-.34.75-.75v-1c0-.41-.34-.75-.75-.75Z"/>
  <path class="cls-1" d="m16,10.25c-.41,0-.75.34-.75.75v1c0,.41.34.75.75.75s.75-.34.75-.75v-1c0-.41-.34-.75-.75-.75Z"/>
  <path class="cls-1" d="m8,10.25c-.41,0-.75.34-.75.75v1c0,.41.34.75.75.75s.75-.34.75-.75v-1c0-.41-.34-.75-.75-.75Z"/>
  <path class="cls-1" d="m10,13.25c-.41,0-.75.34-.75.75v1c0,.41.34.75.75.75s.75-.34.75-.75v-1c0-.41-.34-.75-.75-.75Z"/>
  <path class="cls-1" d="m14,13.25c-.41,0-.75.34-.75.75v1c0,.41.34.75.75.75s.75-.34.75-.75v-1c0-.41-.34-.75-.75-.75Z"/>
  <path class="cls-1" d="m12,16.25c-.41,0-.75.34-.75.75v1c0,.41.34.75.75.75s.75-.34.75-.75v-1c0-.41-.34-.75-.75-.75Z"/>
</svg>