<?xml version="1.0" encoding="UTF-8"?>
<svg id="tomato" xmlns="http://www.w3.org/2000/svg" viewBox="0 0 24 24">
  <defs>
    <style>
      .cls-1 {
        stroke-width: 0px;
      }
    </style>
  </defs>
  <path class="cls-1" d="m19.14,11.01c.29-.39.34-.88.12-1.31-1.31-2.58-3.85-4.22-6.7-4.41-.05-.26-.07-.61.11-.96.19-.38.5-.58.67-.67.37-.19.51-.64.33-1.01-.19-.37-.64-.51-1.01-.33-.58.3-1.05.77-1.33,1.33-.3.6-.34,1.18-.28,1.65-2.69.31-5.05,1.93-6.31,4.38-.22.43-.17.93.12,1.31-.39.94-.61,1.96-.61,2.99,0,4.27,3.48,7.75,7.75,7.75s7.75-3.48,7.75-7.75c0-1.03-.21-2.04-.61-2.99Zm-7.14-4.26c2.28,0,4.44,1.21,5.65,3.14l-1.84-.46c-.38-.09-.77-.01-1.07.23-.31.24-.48.6-.48.99v.55l-1.37-1.37c-.24-.24-.56-.37-.88-.37s-.64.12-.88.37l-1.37,1.37v-.55c0-.39-.18-.75-.48-.99-.3-.24-.7-.32-1.07-.23l-1.84.46c1.2-1.92,3.36-3.14,5.65-3.14Zm0,13.5c-3.45,0-6.25-2.8-6.25-6.25,0-.88.2-1.75.56-2.55l1.94-.49v.83c0,.51.3.96.77,1.16.16.06.32.1.48.1.32,0,.64-.13.88-.37l1.62-1.62,1.62,1.62c.36.36.89.46,1.36.27.47-.19.77-.65.77-1.16v-.83l1.94.49c.36.8.56,1.67.56,2.55,0,3.45-2.8,6.25-6.25,6.25Z"/>
</svg>