<?xml version="1.0" encoding="UTF-8"?>
<svg id="yucca" xmlns="http://www.w3.org/2000/svg" viewBox="0 0 24 24">
  <defs>
    <style>
      .cls-1 {
        stroke-width: 0px;
      }
    </style>
  </defs>
  <path class="cls-1" d="m21.18,3.85l-1.04-1.04c-.68-.68-1.79-.68-2.47,0l-1.31,1.31c-1.35-.83-3.1-.86-4.46,0-.57.36-1.12.77-1.65,1.2-2.24,1.85-3.37,3.8-5.08,6.74-.93,1.6-1.8,3.28-2.58,4.98-.57,1.24-.31,2.73.66,3.7.63.63,1.47.96,2.32.96.46,0,.93-.1,1.37-.3,1.71-.79,3.39-1.66,4.98-2.58,2.95-1.71,4.89-2.84,6.74-5.08.43-.51.83-1.07,1.2-1.65.89-1.39.86-3.11.01-4.47l1.3-1.3c.68-.68.68-1.79,0-2.48Zm-2.52,7.32s-.03-.05-.05-.07l-1.64-1.64c-.29-.29-.77-.29-1.06,0s-.29.77,0,1.06l1.64,1.64c.08.08.18.14.28.17-.11.15-.21.31-.33.45-.86,1.04-1.75,1.82-2.86,2.59-.03-.07-.07-.13-.12-.19l-1.63-1.63c-.29-.29-.77-.29-1.06,0s-.29.77,0,1.06l1.58,1.58c-.66.41-1.39.84-2.24,1.33-1.55.9-3.18,1.75-4.85,2.52-.67.31-1.48.17-2.01-.36-.52-.53-.67-1.33-.36-2.01.12-.26.25-.51.37-.76l.97.97c.15.15.34.22.53.22s.38-.07.53-.22c.29-.29.29-.77,0-1.06l-1.33-1.33c.46-.9.94-1.8,1.45-2.67,1.32-2.28,2.23-3.79,3.4-5.08l1.96,1.96c.15.15.34.22.53.22s.38-.07.53-.22c.29-.29.29-.77,0-1.06l-1.94-1.94c.09-.07.16-.15.25-.22.48-.39.98-.76,1.5-1.09,1.06-.68,2.48-.52,3.37.38l2.14,2.14c.88.88,1.05,2.2.45,3.25Zm1.46-5.9l-1.22,1.21-1.39-1.39,1.22-1.21c.1-.1.26-.1.35,0l1.04,1.04c.1.1.1.26,0,.35Z"/>
  <path class="cls-1" d="m8.81,14.37c-.29-.29-.77-.29-1.06,0s-.29.77,0,1.06l.82.82c.15.15.34.22.53.22s.38-.07.53-.22c.29-.29.29-.77,0-1.06l-.82-.82Z"/>
</svg>