<?xml version="1.0" encoding="UTF-8"?>
<svg id="apple" xmlns="http://www.w3.org/2000/svg" viewBox="0 0 24 24">
  <defs>
    <style>
      .cls-1 {
        stroke-width: 0px;
      }
    </style>
  </defs>
  <path class="cls-1" d="m19.53,8.26c-.29-.3-.77-.3-1.06,0-.29.29-.3.77,0,1.06,2.22,2.25,2.22,6.8-.01,9.18-2.24,2.39-5.92,1.84-6.33,1.77-.08-.01-.17-.01-.25,0-.41.07-4.08.62-6.33-1.77-1.29-1.38-1.91-3.58-1.6-5.73.27-1.86,1.15-3.36,2.43-4.11,2.02-1.2,4.59-.27,5.33.04,0,0,0,0,0,0,0,0,.02,0,.03,0,0,0,.01,0,.02.01.4.13,1.03.29,1.78.29.53,0,1.11-.08,1.72-.3,1.86-.68,3.2-2.45,3.48-4.6.04-.31-.11-.61-.38-.76-.1-.05-2.43-1.31-4.74,0-.73.42-1.32,1.03-1.73,1.74-.09-.16-.16-.33-.26-.49-.57-.89-1.34-1.66-2.23-2.23-.35-.22-.81-.12-1.04.23-.22.35-.12.81.23,1.04.71.45,1.32,1.06,1.77,1.77.32.51.53,1.02.67,1.48-1.4-.38-3.54-.64-5.42.47-1.67.99-2.82,2.88-3.15,5.19-.38,2.63.37,5.24,1.99,6.97,2.62,2.79,6.67,2.38,7.55,2.25.26.04.78.1,1.46.1,1.66,0,4.23-.37,6.09-2.35,2.78-2.96,2.77-8.44-.01-11.26Zm-5.16-3.61c1.06-.61,2.16-.4,2.78-.19-.34,1.34-1.23,2.41-2.41,2.84-.76.28-1.49.23-2.01.12.04-1.15.66-2.2,1.64-2.77Z"/>
</svg>