<?xml version="1.0" encoding="UTF-8"?>
<svg id="banana" xmlns="http://www.w3.org/2000/svg" viewBox="0 0 24 24">
  <defs>
    <style>
      .cls-1 {
        stroke-width: 0px;
      }
    </style>
  </defs>
  <path class="cls-1" d="m19.65,7.02c-.03-.06-.03-.13,0-.2l.58-1.77c.15-.47.1-.98-.13-1.41-.23-.43-.64-.74-1.1-.86l-1.9-.48c-.51-.13-1.05-.02-1.47.3-.43.32-.69.82-.7,1.36-.07,2.25-.64,5.44-2.95,7.83-.48.5-1.37,1.42-2.86,1.95-1.29.46-2.7.48-4.19.09-.83-.22-1.67.07-2.21.75-.54.69-.61,1.6-.19,2.36.83,1.5,1.94,2.67,3.29,3.48,1.44.87,3.14,1.32,4.9,1.31.85,0,1.71-.1,2.56-.32,2.61-.65,4.86-2.28,6.16-4.46,2.46-4.12.78-8.65.21-9.94Zm-1.49,9.17c-1.1,1.84-3.01,3.21-5.24,3.77-2.23.56-4.53.26-6.33-.83-1.13-.68-2.05-1.66-2.76-2.93-.19-.34,0-.63.06-.71.05-.07.22-.25.48-.25.05,0,.1,0,.16.02,1.78.48,3.49.44,5.07-.12,1.82-.64,2.91-1.77,3.44-2.32,2.64-2.74,3.29-6.31,3.37-8.82,0-.12.07-.18.11-.21.04-.03.11-.06.2-.04l1.9.48c.09.02.14.09.16.12.02.04.05.12.02.22l-.58,1.77c-.14.42-.12.87.06,1.27.5,1.12,1.97,5.07-.12,8.56Z"/>
</svg>