<?xml version="1.0" encoding="UTF-8"?>
<svg id="cherries" xmlns="http://www.w3.org/2000/svg" viewBox="0 0 24 24">
  <defs>
    <style>
      .cls-1 {
        stroke-width: 0px;
      }
    </style>
  </defs>
  <path class="cls-1" d="m18.69,11.58c.15-.79.2-1.7.05-2.68-.45-3.07-2.45-4.86-3.29-5.49-.2-.15-.45-.19-.69-.11-.23.08-.41.26-.48.5-.4,1.37-1.04,2.63-1.88,3.76-.83,1.11-1.77,1.95-2.66,2.58-.78-.55-1.72-.88-2.74-.88-2.62,0-4.75,2.13-4.75,4.75s2.13,4.75,4.75,4.75,4.75-2.13,4.75-4.75c0-1.06-.36-2.02-.94-2.81,1.06-.78,2.01-1.69,2.79-2.74.72-.96,1.3-2.02,1.74-3.14.73.75,1.65,2.03,1.91,3.8.12.79.08,1.52-.03,2.16-.08,0-.15-.02-.22-.02-2.62,0-4.75,2.13-4.75,4.75s2.13,4.75,4.75,4.75,4.75-2.13,4.75-4.75c0-2.02-1.28-3.74-3.06-4.42Zm-8.44,2.42c0,1.79-1.46,3.25-3.25,3.25s-3.25-1.46-3.25-3.25,1.46-3.25,3.25-3.25c.46,0,.9.1,1.29.27-.21.11-.41.21-.6.3-.38.17-.54.62-.37.99.17.38.62.54.99.37.43-.2.84-.43,1.25-.66.43.55.69,1.23.69,1.98Zm6.75,5.25c-1.79,0-3.25-1.46-3.25-3.25s1.34-3.11,3.03-3.23c-.14.34-.29.63-.42.84-.21.36-.09.82.26,1.03.12.07.25.1.38.1.26,0,.51-.13.65-.37.2-.33.43-.8.65-1.36,1.15.5,1.96,1.65,1.96,2.98,0,1.79-1.46,3.25-3.25,3.25Z"/>
</svg>