<?xml version="1.0" encoding="UTF-8"?>
<svg id="grape" xmlns="http://www.w3.org/2000/svg" viewBox="0 0 24 24">
  <defs>
    <style>
      .cls-1 {
        stroke-width: 0px;
      }
    </style>
  </defs>
  <path class="cls-1" d="m20.75,10c0-2.07-1.68-3.75-3.75-3.75-.42,0-.83.08-1.22.21.72-.9,1.09-2.17.96-3.53-.03-.36-.32-.64-.67-.67-2.02-.19-3.82.72-4.5,2.23,0,0-.01-.01-.02-.02-.38-.38-1.2-1.04-2.42-1.21-.41-.06-.79.23-.85.64-.06.41.23.79.64.85.8.11,1.33.54,1.58.79.28.28.46.58.58.85-.59.15-1.12.44-1.56.84-.68-.62-1.57-.97-2.51-.97-2.07,0-3.75,1.68-3.75,3.75,0,1.43.82,2.71,2.07,3.34-.04.21-.07.43-.07.66,0,1.82,1.3,3.34,3.03,3.68,0,.11-.03.21-.03.32,0,2.07,1.68,3.75,3.75,3.75s3.75-1.68,3.75-3.75c0-.11-.02-.22-.03-.32,1.72-.34,3.03-1.86,3.03-3.68,0-.23-.03-.44-.07-.66,1.24-.63,2.07-1.91,2.07-3.34Zm-7.86-4.81c.31-.81,1.26-1.37,2.38-1.45-.08,1.13-.63,2.08-1.44,2.4-.21.08-.41.12-.67.11-.12,0-.24-.01-.34-.03-.05-.31-.06-.67.08-1.03Zm-.89,2.56c1.24,0,2.25,1.01,2.25,2.25s-1.01,2.25-2.25,2.25-2.25-1.01-2.25-2.25,1.01-2.25,2.25-2.25Zm-7.25,2.25c0-1.24,1.01-2.25,2.25-2.25.61,0,1.18.26,1.6.69-.22.48-.35,1-.35,1.56,0,.11.02.21.03.32-1,.2-1.86.79-2.41,1.62-.68-.4-1.12-1.13-1.12-1.94Zm2,4c0-1.14.86-2.08,1.97-2.22.52.95,1.42,1.66,2.5,1.89.02.11.03.22.03.33,0,1.24-1.01,2.25-2.25,2.25s-2.25-1.01-2.25-2.25Zm5.25,6.25c-1.24,0-2.25-1.01-2.25-2.25,0-.11.01-.22.03-.33.91-.19,1.69-.72,2.22-1.44.54.72,1.31,1.25,2.22,1.44.02.11.03.22.03.33,0,1.24-1.01,2.25-2.25,2.25Zm3-4c-1.24,0-2.25-1.01-2.25-2.25,0-.11.01-.22.03-.33,1.09-.23,1.99-.94,2.5-1.89,1.11.14,1.97,1.08,1.97,2.22,0,1.24-1.01,2.25-2.25,2.25Zm3.13-4.31c-.55-.82-1.41-1.42-2.41-1.62,0-.11.03-.21.03-.32,0-.56-.13-1.09-.35-1.56.42-.43.99-.69,1.6-.69,1.24,0,2.25,1.01,2.25,2.25,0,.81-.44,1.54-1.12,1.94Z"/>
</svg>