<?xml version="1.0" encoding="UTF-8"?>
<svg id="mango" xmlns="http://www.w3.org/2000/svg" viewBox="0 0 24 24">
  <defs>
    <style>
      .cls-1 {
        stroke-width: 0px;
      }
    </style>
  </defs>
  <path class="cls-1" d="m18.74,8.33c-.31-.51-1.14-1.87-2.89-2.6h0c-.28-.12-.58-.21-.89-.28.09-.54.06-1.2-.3-1.82-.55-.95-1.62-1.49-2.73-1.37-.41.04-.71.41-.67.82.04.41.42.72.82.67.52-.05,1.02.19,1.27.63.18.32.17.64.12.89-2.57-.05-5.28,1.19-6.22,3.14-.46.96-.3,1.74-.15,2.44.1.51.2.98.09,1.58-.2,1.14-1.07,2.23-2.57,3.25-.97.65-1.47,1.7-1.35,2.79.12,1.11.86,2.05,1.97,2.5,1.12.45,2.3.71,3.5.77.19,0,.37.01.56.01,5.36,0,8.42-3.97,8.55-4.15,1.8-2.38,2.77-6.18.89-9.27Zm-2.09,8.37s-2.92,3.77-7.83,3.54c-1.04-.05-2.05-.28-3.02-.67-.59-.24-.98-.71-1.04-1.27-.06-.54.2-1.05.71-1.39,1.85-1.25,2.93-2.68,3.21-4.23.16-.88.02-1.59-.1-2.15-.12-.6-.2-.99.04-1.49.61-1.28,2.66-2.3,4.69-2.3.68,0,1.35.11,1.97.37,1.3.54,1.92,1.56,2.19,2,1.52,2.49.69,5.61-.8,7.59Z"/>
</svg>