<?xml version="1.0" encoding="UTF-8"?>
<svg id="olives" xmlns="http://www.w3.org/2000/svg" viewBox="0 0 24 24">
  <defs>
    <style>
      .cls-1 {
        stroke-width: 0px;
      }
    </style>
  </defs>
  <path class="cls-1" d="m12,2.25c-4.27,0-7.75,4.37-7.75,9.75s3.48,9.75,7.75,9.75,7.75-4.37,7.75-9.75-3.48-9.75-7.75-9.75Zm0,18c-3.45,0-6.25-3.7-6.25-8.25S8.55,3.75,12,3.75s6.25,3.7,6.25,8.25-2.8,8.25-6.25,8.25Z"/>
  <path class="cls-1" d="m13.4,6.55c-.51.68-1.31.7-1.4.7-.85,0-1.35-.63-1.4-.7-.25-.33-.72-.4-1.05-.15-.33.25-.4.72-.15,1.05.16.22,1.05,1.3,2.6,1.3.27,0,1.67-.06,2.6-1.3.25-.33.18-.8-.15-1.05-.33-.25-.8-.18-1.05.15Z"/>
</svg>