<?xml version="1.0" encoding="UTF-8"?>
<svg id="pear" xmlns="http://www.w3.org/2000/svg" viewBox="0 0 24 24">
  <defs>
    <style>
      .cls-1 {
        stroke-width: 0px;
      }
    </style>
  </defs>
  <path class="cls-1" d="m18.72,14.4c-.37-1.37-1.06-2.18-1.67-2.9-.16-.19-.31-.37-.46-.56-.82-1.06-1.37-2.44-1.65-4.08-.21-1.24-1.09-2.2-2.2-2.5-.23-1-.73-1.76-1.47-2.06-.45-.18-.95-.19-1.5-.02-.4.12-.62.54-.5.93.12.4.54.62.93.5.15-.04.35-.08.5-.02.18.07.36.31.49.68-1.09.32-1.95,1.26-2.16,2.49-.28,1.64-.83,3.02-1.65,4.08-.15.19-.3.37-.46.56-.61.72-1.3,1.54-1.67,2.9-.38,1.37-.37,2.6.02,3.66,1.06,2.92,4.71,3.69,6.7,3.69s5.64-.78,6.7-3.69c.39-1.06.39-2.29.02-3.66Zm-1.43,3.14c-.78,2.14-3.81,2.71-5.3,2.71s-4.51-.57-5.3-2.71c-.28-.76-.27-1.69.02-2.74.29-1.05.81-1.67,1.37-2.33.17-.2.34-.4.5-.61.97-1.26,1.62-2.86,1.94-4.74.09-.55.42-.97.85-1.19-.02.29-.05.6-.12.93-.08.41.18.8.58.89.05.01.1.02.15.02.35,0,.66-.24.73-.6.08-.37.11-.72.14-1.07.3.24.52.6.6,1.03.32,1.89.97,3.48,1.94,4.74.16.21.33.41.5.61.56.66,1.08,1.28,1.37,2.33.29,1.06.3,1.98.02,2.74Z"/>
</svg>