<?xml version="1.0" encoding="UTF-8"?>
<svg id="radish" xmlns="http://www.w3.org/2000/svg" viewBox="0 0 24 24">
  <defs>
    <style>
      .cls-1 {
        stroke-width: 0px;
      }
    </style>
  </defs>
  <path class="cls-1" d="m16.43,9.41c.93-.33,1.67-.9,2.07-1.68l.07-.15c.32-.75.23-1.6-.26-2.27-.52-.72-1.41-1.12-2.31-1.06-1.29.1-2.4.58-3.24,1.37v-2.63c0-.41-.34-.75-.75-.75s-.75.34-.75.75v2.63c-.84-.79-1.95-1.27-3.24-1.37-.9-.07-1.79.33-2.31,1.06-.48.67-.58,1.52-.25,2.27l.07.15c.4.78,1.14,1.35,2.08,1.68-1.74,1.18-2.69,3.25-2.22,5.27.09.39.23.77.41,1.12.41.79.92,1.23,1.78,1.96.32.28.7.6,1.16,1.02.95.87,1.87,1.78,2.72,2.72.14.16.34.25.55.25s.41-.09.55-.25c.85-.94,1.77-1.85,2.72-2.72.46-.42.84-.74,1.16-1.02.85-.73,1.37-1.17,1.78-1.96.18-.35.32-.72.41-1.11.47-2.03-.47-4.12-2.2-5.28Zm-2.73-2.63c.6-.61,1.42-.95,2.42-1.03.38-.04.76.14.97.44.1.14.25.44.07.87-.48.95-2.18,1.53-4.24.98.15-.41.39-.86.79-1.26Zm-6.88.21c-.16-.37,0-.66.1-.8.2-.28.53-.44.88-.44.03,0,.06,0,.09,0,1,.08,1.81.43,2.42,1.03.4.4.64.85.79,1.26-2.06.55-3.76-.04-4.27-1.05Zm10.35,7.36c-.06.27-.16.53-.28.76-.28.53-.64.84-1.42,1.52-.33.28-.72.62-1.19,1.04-.79.71-1.55,1.46-2.27,2.22-.72-.76-1.48-1.51-2.27-2.22-.47-.43-.86-.76-1.19-1.04-.79-.67-1.15-.98-1.42-1.52-.13-.24-.22-.49-.28-.76h0c-.41-1.78.76-3.63,2.66-4.22.81-.25,1.66-.38,2.51-.38s1.79.15,2.64.42c1.82.59,2.93,2.43,2.52,4.18Z"/>
</svg>