<svg id="Layer_3" data-name="Layer 3" xmlns="http://www.w3.org/2000/svg" viewBox="0 0 32 32"><defs><style>.cls-1{fill:#747987;}</style></defs><path class="cls-1" d="M20.7,22.54s0-.07,0-.11,0,0,0-.06a1.11,1.11,0,0,0-.09-.19L20.49,22l-.14-.12a.52.52,0,0,0-.17-.12l-.05,0s-.07,0-.11,0a.5.5,0,0,0-.21,0,1.21,1.21,0,0,0-.19,0h-.13c-2.85.66-5.68-.06-7.22-1.83-1.69-1.92-1.82-5.06-.36-8a.38.38,0,0,0,0-.1,1.46,1.46,0,0,0,.05-.2,1.34,1.34,0,0,0,0-.2.41.41,0,0,0,0-.11.15.15,0,0,0,0-.07A.62.62,0,0,0,11.9,11a.83.83,0,0,0-.09-.16l-.13-.14a1,1,0,0,0-.16-.12l-.06,0-.11,0-.19-.05h-.32a9.06,9.06,0,1,0,9.73,12.78h0l.06-.11a.35.35,0,0,0,0-.11.71.71,0,0,0,0-.2A1.47,1.47,0,0,0,20.7,22.54ZM10.37,26.09A7.05,7.05,0,0,1,9.36,13a8.68,8.68,0,0,0,1.4,8.22,8.81,8.81,0,0,0,6.67,2.75l.32,0A7.08,7.08,0,0,1,10.37,26.09Z"/><path class="cls-1" d="M28.63,9.41a1,1,0,0,0-1.26-.64L25,9.54a4.38,4.38,0,0,0-.65-.9l1.48-2a1,1,0,0,0-1.62-1.17l-1.47,2a4.91,4.91,0,0,0-1.06-.36V4.61a1,1,0,1,0-2,0V7.1a4.81,4.81,0,0,0-1.07.36l-1.47-2a1,1,0,0,0-1.39-.22,1,1,0,0,0-.23,1.39l1.48,2a4.79,4.79,0,0,0-.65.9l-2.39-.77a1,1,0,0,0-1.26.64,1,1,0,0,0,.64,1.26l2.39.78a4.87,4.87,0,0,0-.06.55,5.32,5.32,0,0,0,.06.56l-2.39.77a1,1,0,0,0,.31,1.95.84.84,0,0,0,.31,0l2.39-.77a4.79,4.79,0,0,0,.65.9l-1.48,2a1,1,0,0,0,.23,1.4,1,1,0,0,0,.58.19,1,1,0,0,0,.81-.42l1.47-2a4.81,4.81,0,0,0,1.07.36v2.49a1,1,0,0,0,2,0V16.9a4.91,4.91,0,0,0,1.06-.36l1.47,2A1,1,0,0,0,25,19a1.09,1.09,0,0,0,.59-.19,1,1,0,0,0,.22-1.4l-1.48-2a4.79,4.79,0,0,0,.65-.9l2.39.77a.87.87,0,0,0,.31,0A1,1,0,0,0,28,13.33l-2.39-.77a5.32,5.32,0,0,0,.06-.56,4.87,4.87,0,0,0-.06-.55L28,10.67A1,1,0,0,0,28.63,9.41Zm-8,5.59a3,3,0,1,1,3-3A3,3,0,0,1,20.66,15Z"/></svg>