<svg id="Layer_3" data-name="Layer 3" xmlns="http://www.w3.org/2000/svg" viewBox="0 0 32 32"><defs><style>.cls-1{fill:#747987;}</style></defs><path class="cls-1" d="M22.91,16A6.91,6.91,0,1,0,16,22.91,6.92,6.92,0,0,0,22.91,16ZM16,20.91A4.91,4.91,0,1,1,20.91,16,4.91,4.91,0,0,1,16,20.91Z"/><path class="cls-1" d="M16,8.27a1,1,0,0,0,1-1V4.7a1,1,0,1,0-2,0V7.27A1,1,0,0,0,16,8.27Z"/><path class="cls-1" d="M10.06,9.53a1,1,0,0,0,.81.41,1,1,0,0,0,.59-.19,1,1,0,0,0,.22-1.4L10.17,6.27A1,1,0,1,0,8.55,7.45Z"/><path class="cls-1" d="M5,13.46l2.44.79a.87.87,0,0,0,.31.05,1,1,0,0,0,1-.69A1,1,0,0,0,8,12.35l-2.45-.79A1,1,0,1,0,5,13.46Z"/><path class="cls-1" d="M5.25,20.49a.81.81,0,0,0,.31,0L8,19.65a1,1,0,0,0,.64-1.26,1,1,0,0,0-1.26-.64L5,18.54a1,1,0,0,0,.3,1.95Z"/><path class="cls-1" d="M10.06,22.47,8.55,24.55A1,1,0,0,0,8.77,26a1,1,0,0,0,.59.19,1,1,0,0,0,.81-.41l1.51-2.08a1,1,0,0,0-.22-1.4A1,1,0,0,0,10.06,22.47Z"/><path class="cls-1" d="M15,24.73V27.3a1,1,0,0,0,2,0V24.73a1,1,0,0,0-2,0Z"/><path class="cls-1" d="M21.83,25.73a1,1,0,0,0,.81.41,1,1,0,0,0,.59-.19,1,1,0,0,0,.22-1.4l-1.51-2.08a1,1,0,0,0-1.4-.22,1,1,0,0,0-.22,1.4Z"/><path class="cls-1" d="M24,19.65l2.45.79a.81.81,0,0,0,.31,0,1,1,0,0,0,.3-1.95l-2.44-.79a1,1,0,0,0-1.26.64A1,1,0,0,0,24,19.65Z"/><path class="cls-1" d="M23.35,13.61a1,1,0,0,0,.95.69.87.87,0,0,0,.31-.05l2.44-.79a1,1,0,1,0-.61-1.9L24,12.35A1,1,0,0,0,23.35,13.61Z"/><path class="cls-1" d="M21.13,9.94a1,1,0,0,0,.81-.41l1.51-2.08a1,1,0,1,0-1.62-1.18L20.32,8.35a1,1,0,0,0,.22,1.4A1,1,0,0,0,21.13,9.94Z"/></svg>