<svg id="Layer_3" data-name="Layer 3" xmlns="http://www.w3.org/2000/svg" viewBox="0 0 32 32"><defs><style>.cls-1{fill:#747987;}</style></defs><path class="cls-1" d="M6,21.19a4.06,4.06,0,0,0-.16,1.1,3.91,3.91,0,0,0,3.77,4H22.37a3.91,3.91,0,0,0,3.78-4,4,4,0,0,0-.16-1.1,5,5,0,0,0,3-4.63,4.88,4.88,0,0,0-3.91-4.9c0-.12,0-.25,0-.38a5.53,5.53,0,0,0-5.58-5.6,5.25,5.25,0,0,0-5.05,3.58,4.41,4.41,0,0,0-1.9-.43,4.59,4.59,0,0,0-4.19,2.83,4.74,4.74,0,0,0-.75-.06,4.81,4.81,0,0,0-4.64,5A5,5,0,0,0,6,21.19Zm16.36,3.13H9.62a1.91,1.91,0,0,1-1.77-2,1.91,1.91,0,0,1,1.77-2,1.52,1.52,0,0,1,.66.15,1,1,0,0,0,.87,0,1,1,0,0,0,.53-.68,1.83,1.83,0,0,1,1.72-1.56,1.68,1.68,0,0,1,1.22.56,1,1,0,0,0,1.07.26,1,1,0,0,0,.66-.88,2.3,2.3,0,0,1,2.34-2.33,2.45,2.45,0,0,1,2.49,2.51,2.9,2.9,0,0,1-.12.77,1,1,0,0,0,.26.92,1.08,1.08,0,0,0,.94.32l.11,0a1.93,1.93,0,0,1,1.78,2A1.92,1.92,0,0,1,22.37,24.32ZM7.64,13.6a2.53,2.53,0,0,1,1,.21,1,1,0,0,0,1.38-.7,2.75,2.75,0,0,1,2.56-2.28,2.48,2.48,0,0,1,1.83.82A1,1,0,0,0,16.14,11a3.33,3.33,0,0,1,3.39-3.36,3.51,3.51,0,0,1,3.58,3.6,4.23,4.23,0,0,1-.17,1.11,1,1,0,0,0,.23.92,1,1,0,0,0,.89.32l.3,0a2.82,2.82,0,0,1,2.64,3,2.94,2.94,0,0,1-2,2.88,3.65,3.65,0,0,0-1.84-1.08v-.09a4.45,4.45,0,0,0-4.49-4.51,4.23,4.23,0,0,0-4,2.64,3.67,3.67,0,0,0-1.31-.25,3.74,3.74,0,0,0-3.34,2.14,3.15,3.15,0,0,0-.44,0A3.66,3.66,0,0,0,7,19.44a3,3,0,0,1-2-2.88A2.82,2.82,0,0,1,7.64,13.6Z"/></svg>