<svg id="Layer_3" data-name="Layer 3" xmlns="http://www.w3.org/2000/svg" viewBox="0 0 32 32"><defs><style>.cls-1{fill:#747987;}</style></defs><path class="cls-1" d="M24.92,10.61c0-.13,0-.26,0-.39s0-.29,0-.43h1.66a1,1,0,1,0,0-2H24.41a5.42,5.42,0,0,0-5-3.21,5.17,5.17,0,0,0-5,3.59,4.27,4.27,0,0,0-1.83-.42,4.52,4.52,0,0,0-4.12,2.86,4.4,4.4,0,0,0-.73-.06,4.81,4.81,0,0,0-4.56,5,4.81,4.81,0,0,0,4.56,5,1,1,0,1,0,0-2,2.82,2.82,0,0,1-2.56-3,2.82,2.82,0,0,1,2.56-3,2.31,2.31,0,0,1,1,.21,1,1,0,0,0,1.4-.7,2.68,2.68,0,0,1,2.49-2.31,2.37,2.37,0,0,1,1.76.83,1,1,0,0,0,1.08.28,1,1,0,0,0,.67-.89,3.28,3.28,0,0,1,3.28-3.39,3.37,3.37,0,0,1,2.62,1.21H20.83a1,1,0,0,0,0,2h2.06a3,3,0,0,1,0,.43,4.51,4.51,0,0,1-.16,1.13,1,1,0,0,0,.22.92,1,1,0,0,0,.89.32l.11,0,.2,0a2.82,2.82,0,0,1,2.56,3,2.82,2.82,0,0,1-2.56,3H11.43a1,1,0,0,0,0,2H24.19a4.81,4.81,0,0,0,4.56-5A4.91,4.91,0,0,0,24.92,10.61Z"/><path class="cls-1" d="M22.28,16.32a1,1,0,0,0,0-2H16.55a1,1,0,0,0,0,2Z"/><path class="cls-1" d="M26.11,22H22.86a1,1,0,0,0,0,2h3.25a1,1,0,0,0,0-2Z"/><path class="cls-1" d="M21.11,23a1,1,0,0,0-1-1H5.74a1,1,0,1,0,0,2H20.11A1,1,0,0,0,21.11,23Z"/><path class="cls-1" d="M8.38,25.42a1,1,0,0,0,0,2H12.8a1,1,0,0,0,0-2Z"/><path class="cls-1" d="M26.11,25.42H15.6a1,1,0,0,0,0,2H26.11a1,1,0,0,0,0-2Z"/></svg>