<svg id="Layer_3" data-name="Layer 3" xmlns="http://www.w3.org/2000/svg" viewBox="0 0 32 32"><defs><style>.cls-1{fill:#747987;}</style></defs><path class="cls-1" d="M25.77,17.58c0-.09,0-.18,0-.26a5.1,5.1,0,0,0-5.15-5.17,5,5,0,0,0-2.1.46c-.05-.07-.11-.13-.17-.2l2.23-2.72a1,1,0,1,0-1.54-1.27l-2.19,2.67A6.74,6.74,0,0,0,13.21,10h0l-.63-3.86a1,1,0,1,0-2,.32l.63,3.84a6.75,6.75,0,0,0-3.4,2.43L4.33,10.82a1,1,0,0,0-1.36.4,1,1,0,0,0,.4,1.36l3.5,1.91a6.61,6.61,0,0,0,0,4.36A4.69,4.69,0,0,0,5.56,22.1a4.46,4.46,0,0,0,4.3,4.6H25a4.46,4.46,0,0,0,4.3-4.6A4.52,4.52,0,0,0,25.77,17.58ZM8.48,16.73a4.73,4.73,0,0,1,8.45-2.92A5.11,5.11,0,0,0,16,15.35,4.05,4.05,0,0,0,14.34,15a4.26,4.26,0,0,0-3.85,2.55,4.35,4.35,0,0,0-.63,0,4.08,4.08,0,0,0-1.27.22A4.71,4.71,0,0,1,8.48,16.73ZM25,24.7H9.86a2.47,2.47,0,0,1-2.3-2.6,2.46,2.46,0,0,1,2.3-2.59,2.11,2.11,0,0,1,.86.18,1,1,0,0,0,.86,0,1,1,0,0,0,.53-.69,2.37,2.37,0,0,1,2.23-2,2.13,2.13,0,0,1,1.59.72A1,1,0,0,0,17,18a1,1,0,0,0,.66-.88,2.92,2.92,0,0,1,3-3,3.09,3.09,0,0,1,3.15,3.17,3.71,3.71,0,0,1-.15,1,1,1,0,0,0,1.11,1.25h.1l.17,0a2.46,2.46,0,0,1,2.3,2.59A2.47,2.47,0,0,1,25,24.7Z"/><path class="cls-1" d="M15,10a.9.9,0,0,0,.28,0,1,1,0,0,0,1-.72L17,6.77a1,1,0,0,0-.69-1.24,1,1,0,0,0-1.23.69l-.73,2.56A1,1,0,0,0,15,10Z"/><path class="cls-1" d="M7.77,10.72a1,1,0,0,0,.8.39,1,1,0,0,0,.61-.21,1,1,0,0,0,.18-1.4L7.74,7.39A1,1,0,1,0,6.16,8.6Z"/><path class="cls-1" d="M3.73,17.23l1.53-.08a1,1,0,0,0-.09-2l-1.53.07a1,1,0,0,0-1,1,1,1,0,0,0,1,1Z"/></svg>