<svg id="Layer_3" data-name="Layer 3" xmlns="http://www.w3.org/2000/svg" viewBox="0 0 32 32"><defs><style>.cls-1{fill:#747987;}</style></defs><path class="cls-1" d="M6.37,19.94a.6.6,0,0,0-.06.11l-.15.48a1,1,0,0,0,.66,1.25.77.77,0,0,0,.29,0,1,1,0,0,0,1-.7l.15-.48a1,1,0,0,0,0-.43H12l-.1.31a1,1,0,0,0,.66,1.26,1,1,0,0,0,.3,0,1,1,0,0,0,.95-.7l.15-.48a1.06,1.06,0,0,0,0-.43H17.8l-.1.31a1,1,0,0,0,.66,1.25.79.79,0,0,0,.3,0,1,1,0,0,0,.95-.7l.15-.48a1,1,0,0,0,0-.43h3.78l-.1.31a1,1,0,0,0,.66,1.25.79.79,0,0,0,.3,0,1,1,0,0,0,.95-.7l.15-.48a1,1,0,0,0,0-.66,5,5,0,0,0,3.29-4.78,4.92,4.92,0,0,0-3.84-5c0-.13,0-.26,0-.38a5.51,5.51,0,0,0-5.49-5.65,5.19,5.19,0,0,0-5,3.59,4.28,4.28,0,0,0-1.84-.42,4.56,4.56,0,0,0-4.13,2.86,4.28,4.28,0,0,0-.72-.06,4.81,4.81,0,0,0-4.58,5A5,5,0,0,0,6.37,19.94ZM7.8,12.2a2.1,2.1,0,0,1,1,.22,1,1,0,0,0,.87,0,1,1,0,0,0,.54-.7A2.68,2.68,0,0,1,12.65,9.4a2.39,2.39,0,0,1,1.77.83,1,1,0,0,0,1.74-.61,3.3,3.3,0,0,1,3.3-3.39A3.49,3.49,0,0,1,23,9.88,4.43,4.43,0,0,1,22.79,11a1,1,0,0,0,.22.92,1,1,0,0,0,.89.32l.11,0,.19,0a2.82,2.82,0,0,1,2.58,3,2.82,2.82,0,0,1-2.58,3H7.8a2.82,2.82,0,0,1-2.58-3A2.82,2.82,0,0,1,7.8,12.2Z"/><path class="cls-1" d="M24.41,24.25l.24-.78a1,1,0,0,0-1.91-.6l-.24.78a1,1,0,0,0,.65,1.26,1,1,0,0,0,.3,0A1,1,0,0,0,24.41,24.25Z"/><path class="cls-1" d="M23,25.34a1,1,0,0,0-1.25.65l-.15.48a1,1,0,0,0,.66,1.25,1,1,0,0,0,.29.05,1,1,0,0,0,1-.7l.15-.48A1,1,0,0,0,23,25.34Z"/><path class="cls-1" d="M18.64,24.25l.24-.78a1,1,0,0,0-1.91-.6l-.24.78a1,1,0,0,0,.65,1.26,1,1,0,0,0,.3,0A1,1,0,0,0,18.64,24.25Z"/><path class="cls-1" d="M17.25,25.34A1,1,0,0,0,16,26l-.15.48a1,1,0,0,0,1.91.6l.15-.48A1,1,0,0,0,17.25,25.34Z"/><path class="cls-1" d="M12.87,24.25l.24-.78a1,1,0,0,0-1.91-.6l-.24.78a1,1,0,0,0,.65,1.26,1,1,0,0,0,.3,0A1,1,0,0,0,12.87,24.25Z"/><path class="cls-1" d="M11.48,25.34a1,1,0,0,0-1.25.65l-.15.48a1,1,0,0,0,.95,1.3,1,1,0,0,0,1-.7l.15-.48A1,1,0,0,0,11.48,25.34Z"/><path class="cls-1" d="M7.1,24.25l.24-.78a1,1,0,0,0-1.91-.6l-.24.78a1,1,0,0,0,.65,1.26,1,1,0,0,0,.3,0A1,1,0,0,0,7.1,24.25Z"/><path class="cls-1" d="M5.71,25.34A1,1,0,0,0,4.46,26l-.15.48a1,1,0,0,0,1,1.3,1,1,0,0,0,1-.7l.15-.48A1,1,0,0,0,5.71,25.34Z"/></svg>