<svg id="Layer_3" data-name="Layer 3" xmlns="http://www.w3.org/2000/svg" viewBox="0 0 32 32"><defs><style>.cls-1{fill:#747987;}</style></defs><path class="cls-1" d="M9.27,21.32l-4.92-.23a1,1,0,0,0-1,.95,1,1,0,0,0,1,1l3.11.15-2,2a1,1,0,0,0,0,1.42,1,1,0,0,0,1.42,0l2-2,.15,3.11a1,1,0,0,0,1,.95H10a1,1,0,0,0,.95-1.05l-.23-4.92L15,18.41v4.64l-3,2.72a1,1,0,0,0,.67,1.74,1,1,0,0,0,.67-.26L15,25.75V27.7a1,1,0,1,0,2,0V25.75l1.65,1.5a1,1,0,0,0,.67.26A1,1,0,0,0,20,25.77l-3-2.72V18.41l4.32,4.32-.23,4.92A1,1,0,0,0,22,28.7h.05a1,1,0,0,0,1-.95l.15-3.11,2,2a1,1,0,0,0,1.42,0,1,1,0,0,0,0-1.42l-2-2,3.11-.15a1,1,0,0,0,.95-1,1,1,0,0,0-1.05-.95l-4.92.23L18.41,17h4.64l2.72,3a1,1,0,0,0,.74.33,1,1,0,0,0,.67-.26,1,1,0,0,0,.07-1.41L25.75,17H27.7a1,1,0,1,0,0-2H25.75l1.5-1.65A1,1,0,1,0,25.77,12l-2.72,3H18.41l4.32-4.32,4.92.23h.05a1,1,0,0,0,1-1,1,1,0,0,0-.95-1l-3.11-.15,2-2a1,1,0,0,0-1.42-1.42l-2,2-.15-3.11a1,1,0,0,0-1-1,1,1,0,0,0-.95,1l.23,4.92L17,13.59V9l3-2.72a1,1,0,1,0-1.34-1.48L17,6.25V4.3a1,1,0,0,0-2,0v2l-1.65-1.5A1,1,0,0,0,12,6.23L15,9v4.64L10.68,9.27l.23-4.92a1,1,0,0,0-.95-1,1,1,0,0,0-1,1L8.77,7.36l-2-2A1,1,0,0,0,5.39,6.81l2,2-3.11.15a1,1,0,0,0-1,1,1,1,0,0,0,1,1h0l4.92-.23L13.59,15H9L6.23,12a1,1,0,0,0-1.48,1.34L6.25,15H4.3a1,1,0,0,0,0,2h2l-1.5,1.65a1,1,0,0,0,.07,1.41,1,1,0,0,0,.67.26A1,1,0,0,0,6.23,20L9,17h4.64Z"/></svg>