<svg id="Layer_3" data-name="Layer 3" xmlns="http://www.w3.org/2000/svg" viewBox="0 0 32 32"><defs><style>.cls-1{fill:#747987;}</style></defs><path class="cls-1" d="M25,9.09c0-.12,0-.24,0-.36a5.48,5.48,0,0,0-5.53-5.55,5.21,5.21,0,0,0-5,3.53,4.27,4.27,0,0,0-1.87-.42,4.56,4.56,0,0,0-4.15,2.8A4.74,4.74,0,0,0,7.72,9,4.78,4.78,0,0,0,3.12,14a4.78,4.78,0,0,0,4.6,4.93,1,1,0,0,0,0-2A2.79,2.79,0,0,1,5.12,14,2.78,2.78,0,0,1,7.72,11a2.37,2.37,0,0,1,1,.21,1,1,0,0,0,.87,0,1,1,0,0,0,.52-.69,2.67,2.67,0,0,1,2.53-2.25,2.46,2.46,0,0,1,1.8.81,1,1,0,0,0,1.08.27,1,1,0,0,0,.66-.89,3.26,3.26,0,0,1,3.33-3.3A3.46,3.46,0,0,1,23,8.73a4.22,4.22,0,0,1-.16,1.09,1,1,0,0,0,.22.92,1,1,0,0,0,.88.33l.11,0,.21,0A2.78,2.78,0,0,1,26.88,14a2.79,2.79,0,0,1-2.6,2.93,1,1,0,0,0,0,2A4.78,4.78,0,0,0,28.88,14,4.85,4.85,0,0,0,25,9.09Z"/><path class="cls-1" d="M17.24,12.67a29.53,29.53,0,0,0-2.32,2.7c-.72.92-1.4,1.87-2.05,2.85l-.51.78.9.5c1.05.59,2.13,1.12,3.22,1.63-.6.89-1.19,1.79-1.74,2.72a34.58,34.58,0,0,0-2.05,4,31.48,31.48,0,0,0,3.2-3.12q1.48-1.65,2.83-3.39l.72-.92-1.09-.55c-1.13-.57-2.29-1.1-3.46-1.6Q15.46,17.13,16,16A30,30,0,0,0,17.24,12.67Z"/><path class="cls-1" d="M21.86,14.14a13.83,13.83,0,0,0-1.72,1.7,19.76,19.76,0,0,0-1.46,1.85l-.55.75.94.54c.59.34,1.2.65,1.81.95-.31.5-.61,1-.89,1.53a16.08,16.08,0,0,0-1.17,2.79,15.78,15.78,0,0,0,2.33-1.94,25.58,25.58,0,0,0,2-2.21l.71-.91-1.08-.56c-.67-.34-1.36-.66-2.06-.95.18-.4.35-.8.5-1.22A14.18,14.18,0,0,0,21.86,14.14Z"/><path class="cls-1" d="M11.61,15.58a14.56,14.56,0,0,0-1.72,1.7,21.56,21.56,0,0,0-1.46,1.85l-.54.75.93.54c.59.34,1.2.65,1.82.95-.32.5-.62,1-.89,1.53a16.08,16.08,0,0,0-1.17,2.79,15.69,15.69,0,0,0,2.32-1.94,25.58,25.58,0,0,0,2-2.21l.72-.91-1.09-.56c-.67-.34-1.35-.66-2.05-.95a12.93,12.93,0,0,0,.49-1.22A13.26,13.26,0,0,0,11.61,15.58Z"/></svg>